<svg width="32" height="24" viewBox="0 0 32 24" fill="none" xmlns="http://www.w3.org/2000/svg">
<path d="M22.1265 18.1168C21.998 18.0594 21.8556 18.0404 21.7165 18.0621C21.1972 18.1532 19.8034 18.3628 18.947 18.3355C18.6008 18.3355 18.8194 18.4266 18.6737 18.7545C18.4095 19.3558 21.9716 19.4651 21.7074 19.5471C21.3886 19.6564 21.4979 20.4217 20.9786 20.5128C20.4684 20.6039 19.029 20.449 18.3913 20.531C16.6953 20.7489 14.9766 20.7182 13.2895 20.4399C12.6518 20.0937 12.2509 19.8387 12.1052 19.456C12.0323 19.2738 14.1641 19.2465 14.3554 19.1827C14.8747 19.0278 15.0113 18.6725 14.9385 18.4083C14.8109 17.9437 13.4808 17.9528 13.1893 17.9255C12.5698 17.8617 12.2418 17.4973 11.1486 17.5246C10.6202 17.5246 9.85491 17.8253 9.20807 18.135C9.07373 18.1958 8.92631 18.2221 8.77924 18.2113C8.63217 18.2006 8.49013 18.1532 8.36606 18.0735C8.24199 17.9938 8.13984 17.8843 8.0689 17.755C7.99797 17.6258 7.96052 17.4808 7.95996 17.3333V9.73532C7.95996 9.27069 8.34259 8.88806 8.80722 8.88806H24.3676C24.8323 8.88806 25.2149 9.27069 25.2149 9.73532V18.0439C25.2149 18.4083 24.9598 18.709 24.6045 18.7545H24.5954C24.2947 18.7819 23.985 18.791 23.6844 18.791C23.6844 18.8456 22.6002 18.3355 22.1356 18.1168H22.1265Z" fill="#FFE091"/>
<path d="M15.6947 20.7407C14.1459 20.7862 13.1985 20.7954 12.8796 20.6496C12.2055 20.3581 12.1417 19.8388 11.9868 19.447C11.9139 19.2739 14.0275 19.3013 14.2097 19.2102C14.5559 19.028 14.7837 18.6818 14.7928 18.4085C14.7928 17.9438 13.8909 18.044 13.1438 18.0258C12.2328 18.0167 11.9777 17.625 11.0211 17.6432C10.3469 17.6523 9.37214 18.0623 8.68887 18.3902C8.61179 18.4296 8.52582 18.4483 8.43935 18.4446C8.35288 18.4408 8.26886 18.4147 8.19546 18.3689C8.12207 18.323 8.06181 18.2589 8.02055 18.1828C7.97929 18.1067 7.95845 18.0213 7.96005 17.9347V14.3999C7.9615 14.3203 7.98902 14.2433 8.03838 14.1808C8.08774 14.1183 8.15622 14.0736 8.23336 14.0537C8.96218 13.8988 10.9664 13.6255 12.9252 14.7734C15.8405 16.4953 16.5055 20.7134 15.6947 20.7407Z" fill="#20366A"/>
<path d="M15.4671 5.64494C15.0709 5.2021 14.621 4.81038 14.1279 4.47882C13.7817 4.22373 13.308 3.97775 12.8798 4.14174C12.1145 4.41505 11.5133 4.99811 11.6135 5.8727C11.7319 6.78373 12.5336 7.17547 13.2989 7.467L15.4034 8.28693C15.6129 8.35981 15.8953 8.46913 16.114 8.43269C16.5968 8.34159 16.3235 7.40323 16.2415 7.09348C16.0956 6.55394 15.8275 6.0552 15.458 5.63583L15.4671 5.64494Z" fill="#829EC4"/>
<path d="M15.5402 5.02538C15.2086 4.61623 14.8224 4.25452 14.3924 3.95037C13.8457 3.55862 13.1169 3.3582 12.4974 3.73172C12.2163 3.89485 11.99 4.13782 11.8473 4.42979C11.7046 4.72176 11.6518 5.04956 11.6957 5.37158C11.723 5.54467 11.7959 5.71777 11.9781 5.77243C12.5612 5.95464 13.1625 6.11862 13.7364 6.33727C14.1828 6.50125 14.611 6.70168 15.0119 6.93855C15.4218 7.18453 15.7407 7.66737 16.2144 7.75848C16.2509 7.7767 16.2873 7.7767 16.3237 7.75848C16.3511 7.74937 16.3784 7.72204 16.3875 7.68559C16.6062 7.27563 16.4331 6.73812 16.2782 6.33727C16.096 5.86353 15.85 5.42624 15.5494 5.02538H15.5402Z" fill="#ABCBF4"/>
<path d="M17.6907 5.79981C18.0824 5.36252 18.5288 4.97078 19.0208 4.64281C19.367 4.38772 19.8407 4.14174 20.2689 4.29661C21.0342 4.56992 21.6355 5.16209 21.5352 6.03668C21.4168 6.94771 20.6151 7.33946 19.8498 7.63099L17.7454 8.4418C17.5358 8.5238 17.2534 8.62401 17.0348 8.58757C16.5519 8.50558 16.8252 7.56721 16.9072 7.25746C17.0531 6.71793 17.3212 6.21918 17.6907 5.79981Z" fill="#829EC4"/>
<path d="M17.5994 5.19856C17.9365 4.78859 18.3282 4.42418 18.7473 4.11443C19.303 3.72269 20.0318 3.52226 20.6513 3.89578C20.9324 4.05891 21.1587 4.30188 21.3014 4.59385C21.4442 4.88582 21.4969 5.21362 21.453 5.53564C21.4257 5.70873 21.3437 5.89094 21.1706 5.9456C20.5876 6.1187 19.9863 6.28268 19.4032 6.50133C18.9659 6.66532 18.5377 6.86574 18.1278 7.11172C17.7269 7.34859 17.3989 7.83144 16.9252 7.93165H16.8341C16.7977 7.91343 16.7703 7.8861 16.7521 7.85877C16.5426 7.43969 16.7157 6.91129 16.8705 6.50133C17.0528 6.03671 17.2896 5.5903 17.5994 5.19856ZM14.4017 8.79713C13.9515 9.11783 13.5692 9.52442 13.2768 9.99349C12.9844 10.4626 12.7877 10.9848 12.698 11.5302C12.6251 12.0131 13.4269 11.5302 13.5999 11.4209C13.6455 11.3845 14.1466 10.9836 14.1921 11.0565C14.4654 11.5849 14.7752 12.0859 15.1123 12.5779C15.0394 12.4595 15.1123 12.2135 15.1305 12.086C15.2945 10.8743 15.586 9.50773 16.4059 8.56937C16.4697 8.51471 16.497 8.44183 16.5152 8.36894C16.4879 8.05008 15.8046 8.11386 15.6042 8.16852C15.1721 8.31178 14.766 8.52407 14.4017 8.79713Z" fill="#ABCBF4"/>
<path d="M18.401 8.84267C19.3173 9.4712 19.9465 10.4379 20.1502 11.5302C20.2413 12.0222 19.4214 11.5575 19.2483 11.4391C19.2027 11.4118 18.6834 11.0291 18.647 11.102C18.3828 11.6304 18.0822 12.1406 17.7542 12.6326C17.8271 12.5141 17.7542 12.2681 17.7269 12.1497C17.5447 10.938 17.2349 9.58061 16.3876 8.66047C16.3239 8.60581 16.2874 8.53292 16.2783 8.46004C16.2874 8.13207 16.9798 8.18673 17.1894 8.24139C17.6175 8.37805 18.0275 8.57847 18.401 8.84267Z" fill="#ABCBF4"/>
<path d="M1 19.4379C1.61039 19.529 2.63986 19.7385 3.8242 19.8296M7.6323 18.864V8.7424C7.6323 8.56019 7.77807 8.41443 7.95117 8.41443H14.8568L7.6323 18.864ZM20.7147 20.6314H14.2099H20.7147ZM4.92654 19.8843C6.27487 19.8843 7.72341 19.6748 8.98063 18.9459C11.5953 17.461 11.9779 18.2171 12.7614 18.3082C13.8638 18.4267 14.7383 18.1533 14.6928 18.4995C14.6381 18.9551 14.3648 19.3195 13.3171 19.3468C12.6794 19.3741 11.6499 19.3741 11.4222 19.5563L4.92654 19.8843Z" stroke="#0F346C" stroke-width="0.303674" stroke-linecap="round" stroke-linejoin="round"/>
<path d="M11.8965 19.447C11.8965 19.447 12.4249 20.3581 12.9259 20.5129" stroke="#20366A" stroke-width="0.303674" stroke-linecap="round"/>
<path d="M17.7906 20.6951C17.991 21.1142 17.8817 21.1871 18.647 21.4148C19.4122 21.6426 20.6148 22.0525 21.1159 22.0799C21.626 22.1163 23.5939 21.6243 24.1496 21.7154C24.7053 21.7883 29.634 23.7197 31.0005 23.6833M14.9755 20.6951C14.7386 21.4421 14.602 21.351 13.0715 21.8977C10.7665 22.5809 9.37267 21.433 8.57096 21.6426C7.77836 21.8612 4.19801 22.7358 3.01367 23.3006L14.9755 20.6951ZM3.35075 18.2353C4.23445 18.5724 5.99274 18.8366 6.81267 18.7364L3.35075 18.2353ZM21.8902 19.8023C21.8902 19.8023 21.5258 19.365 20.2868 19.365C19.1936 19.365 18.7745 18.9915 18.6834 18.6179C18.6751 18.5802 18.6755 18.5411 18.6846 18.5035C18.6936 18.4659 18.7111 18.4309 18.7356 18.4011C18.7602 18.3712 18.7912 18.3474 18.8264 18.3313C18.8615 18.3152 18.8999 18.3073 18.9385 18.3082C19.312 18.4084 20.2686 18.4266 20.8517 18.1989C21.7991 17.8345 22.6099 18.044 23.7852 18.8639C24.5504 19.3923 27.1742 20.276 30.6635 20.0118L21.8902 19.8023ZM21.5896 19.8023C21.5076 20.03 21.3436 20.5767 20.7697 20.6313L21.5896 19.8023Z" stroke="#0F346C" stroke-width="0.303674" stroke-linecap="round" stroke-linejoin="round"/>
<path d="M21.3333 5.92736C20.8504 6.65618 19.2652 7.74031 17.7438 8.15938M16.5412 8.16849C16.359 6.89305 15.5573 4.67013 13.0247 3.97775C12.4143 3.79554 11.5397 5.02544 11.7674 5.84536C12.9518 5.90003 15.0289 6.72906 15.8489 7.68565L16.5412 8.16849ZM11.7948 5.90003C12.531 6.76759 13.4697 7.44033 14.5279 7.85874L11.7948 5.90003ZM16.5868 8.20493C16.769 6.92949 17.5707 4.69746 20.1034 3.99597C20.7138 3.83199 21.5883 5.05277 21.3606 5.87269C20.2674 5.92736 18.6639 6.51042 17.7438 7.42145L16.5868 8.20493Z" stroke="#20366A" stroke-width="0.303674" stroke-linecap="round"/>
<path d="M16.5879 8.45087C16.8794 8.06824 17.7267 8.20489 17.7267 8.20489C17.7267 8.20489 19.8221 9.48033 19.8949 11.5939C19.731 11.4208 19.5579 11.266 19.3666 11.1293M15.2305 10.6282C15.4206 9.94687 15.7528 9.31348 16.2053 8.76973L15.2305 10.6282ZM16.5879 8.45087C16.0504 7.97713 15.522 8.18667 15.522 8.18667C15.522 8.18667 13.2262 9.48033 13.1533 11.5939C13.7455 10.9562 14.2466 10.8378 14.2466 10.8378C14.2466 10.8378 14.3194 11.7215 14.8569 12.3227C14.8934 12.0494 14.9481 11.7397 15.0209 11.4026L16.5879 8.45087ZM18.7926 10.8287C18.7926 10.8287 18.7197 11.7124 18.1913 12.3136C18.0638 11.3844 17.7085 9.85386 16.9796 8.94283L18.7926 10.8287Z" stroke="#20366A" stroke-width="0.303674" stroke-linecap="round" stroke-linejoin="round"/>
<path d="M19.4756 8.41443H24.6685C24.8142 8.41443 24.9327 8.53286 24.9327 8.66952V18.6089C26.0441 18.6726 27.1556 18.5724 28.2397 18.3082" stroke="#0F346C" stroke-width="0.303674" stroke-linecap="round" stroke-linejoin="round"/>
<path d="M26.9821 9.38926C27.4103 9.11595 27.6745 9.55324 28.1118 9.29815C28.54 9.02485 28.2667 8.59666 28.6948 8.33246M28.2484 3.16692C27.7565 3.61332 27.2919 3.08492 26.7908 3.53133C26.3079 3.96862 26.7908 4.48791 26.2897 4.92521C25.7978 5.37161 25.3422 4.8341 24.8412 5.28962C24.3492 5.73602 24.8412 6.23709 24.3401 6.67439L28.2484 3.16692ZM16.6328 4.19638C16.4597 3.64976 17.0063 3.48578 16.8514 2.93916C16.6875 2.39254 16.1226 2.55653 15.9677 2.00991C15.7946 1.46329 16.3504 1.2993 16.1773 0.752686L16.6328 4.19638ZM8.96191 1.60905C9.32633 2.16478 8.7706 2.52009 9.1259 3.0667C9.49031 3.62243 10.0369 3.25802 10.3922 3.81375L8.96191 1.60905Z" stroke="#FFCB47" stroke-width="0.303674" stroke-linecap="round" stroke-linejoin="round"/>
<path d="M24.1213 1.00777C24.1577 1.00777 24.185 1.03511 24.185 1.06244L24.2215 1.3813C24.2215 1.39952 24.2397 1.41774 24.2579 1.42685L24.5312 1.58172C24.5407 1.58739 24.5485 1.59541 24.5539 1.60498C24.5593 1.61456 24.5622 1.62538 24.5622 1.63639C24.5622 1.64739 24.5593 1.65821 24.5539 1.66779C24.5485 1.67737 24.5407 1.68538 24.5312 1.69105L24.2488 1.8277C24.2306 1.8277 24.2124 1.84592 24.2124 1.87325L24.1577 2.183C24.1577 2.21945 24.1304 2.23767 24.0939 2.23767C24.0757 2.23767 24.0575 2.23767 24.0484 2.21945L23.8297 1.98258C23.8237 1.97668 23.8166 1.97204 23.8088 1.96891C23.801 1.96578 23.7926 1.96424 23.7842 1.96436L23.4653 2.00991H23.4562C23.4457 2.00943 23.4355 2.00635 23.4265 2.00096C23.4174 1.99557 23.4099 1.98803 23.4045 1.97901C23.3991 1.97 23.396 1.95978 23.3955 1.94927C23.3949 1.93877 23.397 1.9283 23.4016 1.91881L23.5564 1.63639V1.58172L23.4107 1.29019C23.4062 1.2807 23.4041 1.27023 23.4046 1.25972C23.4051 1.24922 23.4082 1.239 23.4136 1.22999C23.419 1.22097 23.4265 1.21343 23.4356 1.20804C23.4446 1.20265 23.4548 1.19957 23.4653 1.19909H23.4836L23.7933 1.26286H23.8024L23.848 1.24464L24.0757 1.01688L24.1213 0.998664V1.00777ZM24.1213 0.752686C24.0302 0.752686 23.9573 0.780016 23.9026 0.843789L23.7478 0.989554L23.5291 0.944002H23.4653C23.4118 0.944002 23.3593 0.957853 23.3127 0.984208C23.2662 1.01056 23.2272 1.04852 23.1997 1.09439C23.1722 1.14025 23.157 1.19247 23.1557 1.24594C23.1543 1.29941 23.1669 1.35232 23.192 1.39952L23.2831 1.59994L23.1738 1.78215C23.144 1.8298 23.1278 1.88466 23.1268 1.94085C23.1258 1.99703 23.1401 2.05243 23.1682 2.10111C23.1963 2.14978 23.237 2.1899 23.2862 2.21717C23.3353 2.24443 23.391 2.25782 23.4471 2.25589H23.4927L23.7113 2.22856L23.8571 2.39254C23.8959 2.43947 23.9477 2.47391 24.006 2.49156C24.0642 2.50922 24.1264 2.5093 24.1848 2.4918C24.2431 2.4743 24.295 2.44 24.3339 2.39318C24.3728 2.34636 24.3971 2.2891 24.4037 2.22856L24.4401 2.00991L24.6406 1.91881C24.6954 1.8952 24.7422 1.85626 24.7754 1.80668C24.8086 1.7571 24.8267 1.69899 24.8277 1.63933C24.8287 1.57967 24.8124 1.521 24.7808 1.47038C24.7492 1.41975 24.7037 1.37933 24.6497 1.35397L24.4675 1.25375L24.431 1.03511C24.4128 0.88023 24.2853 0.761796 24.1213 0.761796V0.752686ZM6.3744 1.03511H6.40173L6.62948 1.16265H6.67504L6.90279 1.05333C6.91129 1.0503 6.92041 1.04943 6.92933 1.05079C6.93824 1.05215 6.94669 1.05569 6.9539 1.0611C6.96112 1.06651 6.96688 1.07363 6.97068 1.08181C6.97448 1.08999 6.9762 1.09898 6.97568 1.10799L6.92101 1.36308L6.93012 1.40863L7.11233 1.59994C7.11917 1.60753 7.12375 1.61689 7.12554 1.62694C7.12734 1.637 7.12628 1.64736 7.12248 1.65684C7.11869 1.66633 7.11231 1.67456 7.10408 1.68061C7.09584 1.68665 7.08608 1.69027 7.07589 1.69105L6.8208 1.70927C6.80258 1.70927 6.78436 1.72749 6.77525 1.7366L6.65682 1.96436C6.65183 1.97187 6.64506 1.97804 6.63711 1.98231C6.62916 1.98657 6.62028 1.9888 6.61126 1.9888C6.60224 1.9888 6.59336 1.98657 6.58542 1.98231C6.57747 1.97804 6.5707 1.97187 6.56571 1.96436L6.45639 1.72749C6.45639 1.70927 6.43817 1.70016 6.41995 1.70016L6.16486 1.65461C6.15614 1.65135 6.14841 1.64592 6.14238 1.63884C6.13635 1.63175 6.13222 1.62325 6.1304 1.61412C6.12857 1.605 6.12911 1.59556 6.13195 1.58671C6.13479 1.57785 6.13985 1.56986 6.14664 1.5635L6.33795 1.3813L6.35618 1.34486L6.31973 1.08066C6.31973 1.06616 6.32549 1.05226 6.33574 1.042C6.346 1.03175 6.3599 1.02599 6.3744 1.02599H6.36529L6.3744 1.03511ZM6.3744 0.770906C6.33063 0.771502 6.28753 0.781647 6.24809 0.800631C6.20865 0.819615 6.17384 0.846981 6.14607 0.880817C6.11831 0.914653 6.09827 0.954143 6.08735 0.996528C6.07644 1.03891 6.0749 1.08317 6.08287 1.12621L6.10109 1.28108L5.98265 1.3813C5.93812 1.41826 5.9052 1.4673 5.88785 1.52252C5.8705 1.57773 5.86946 1.63679 5.88485 1.69258C5.90024 1.74838 5.93141 1.79854 5.97462 1.83706C6.01782 1.87557 6.07123 1.90079 6.12842 1.90969L6.28329 1.93703L6.34707 2.08279C6.36925 2.13598 6.40625 2.18167 6.45367 2.21442C6.50109 2.24718 6.55692 2.26561 6.61452 2.26753C6.67212 2.26945 6.72905 2.25477 6.77855 2.22525C6.82804 2.19573 6.86801 2.1526 6.89368 2.10101L6.96657 1.96436L7.12144 1.95525C7.17772 1.94927 7.23116 1.92754 7.27563 1.89254C7.32011 1.85754 7.3538 1.8107 7.37283 1.7574C7.39186 1.70411 7.39547 1.64652 7.38323 1.59127C7.37099 1.53602 7.34341 1.48534 7.30365 1.44507L7.20343 1.33575L7.23987 1.18087C7.25526 1.12453 7.25389 1.06493 7.23596 1.00935C7.21802 0.953775 7.18428 0.904624 7.13887 0.867906C7.09345 0.831188 7.03833 0.808493 6.98022 0.802592C6.92212 0.796691 6.86356 0.80784 6.81169 0.834678L6.66593 0.89845L6.53838 0.816458C6.48372 0.798237 6.43817 0.780016 6.38351 0.780016L6.3744 0.770906Z" fill="#FFCB47"/>
<path d="M23.102 5.27146C23.3083 5.27146 23.4756 5.10423 23.4756 4.89794C23.4756 4.69165 23.3083 4.52441 23.102 4.52441C22.8957 4.52441 22.7285 4.69165 22.7285 4.89794C22.7285 5.10423 22.8957 5.27146 23.102 5.27146Z" stroke="#FFCB47" stroke-width="0.303674" stroke-linecap="round" stroke-linejoin="round"/>
<path d="M27.0464 7.13901C27.2527 7.13901 27.4199 6.97178 27.4199 6.76549C27.4199 6.5592 27.2527 6.39197 27.0464 6.39197C26.8401 6.39197 26.6729 6.5592 26.6729 6.76549C26.6729 6.97178 26.8401 7.13901 27.0464 7.13901Z" stroke="#FFCB47" stroke-width="0.303674" stroke-linecap="round" stroke-linejoin="round"/>
<path d="M26.4181 11.357C26.6043 11.357 26.7552 11.2061 26.7552 11.0199C26.7552 10.8338 26.6043 10.6829 26.4181 10.6829C26.232 10.6829 26.0811 10.8338 26.0811 11.0199C26.0811 11.2061 26.232 11.357 26.4181 11.357Z" stroke="#FFCB47" stroke-width="0.303674" stroke-linecap="round" stroke-linejoin="round"/>
<path d="M6.24755 10.2184C6.45384 10.2184 6.62107 10.0511 6.62107 9.84484C6.62107 9.63855 6.45384 9.47131 6.24755 9.47131C6.04126 9.47131 5.87402 9.63855 5.87402 9.84484C5.87402 10.0511 6.04126 10.2184 6.24755 10.2184Z" stroke="#FFCB47" stroke-width="0.303674" stroke-linecap="round" stroke-linejoin="round"/>
<path d="M19.5219 2.25587C19.8489 2.25587 20.114 1.99075 20.114 1.6637C20.114 1.33666 19.8489 1.07153 19.5219 1.07153C19.1948 1.07153 18.9297 1.33666 18.9297 1.6637C18.9297 1.99075 19.1948 2.25587 19.5219 2.25587Z" stroke="#FFCB47" stroke-width="0.303674" stroke-linecap="round" stroke-linejoin="round"/>
<path d="M7.06701 5.6267C7.50475 5.6267 7.85961 5.27184 7.85961 4.8341C7.85961 4.39636 7.50475 4.0415 7.06701 4.0415C6.62927 4.0415 6.27441 4.39636 6.27441 4.8341C6.27441 5.27184 6.62927 5.6267 7.06701 5.6267Z" stroke="#FFCB47" stroke-width="0.303674" stroke-linecap="round" stroke-linejoin="round"/>
<path d="M12.5607 1.55433C12.7921 1.55433 12.9797 1.36671 12.9797 1.13526C12.9797 0.903812 12.7921 0.716187 12.5607 0.716187C12.3292 0.716187 12.1416 0.903812 12.1416 1.13526C12.1416 1.36671 12.3292 1.55433 12.5607 1.55433Z" stroke="#FFCB47" stroke-width="0.303674" stroke-linecap="round" stroke-linejoin="round"/>
<path d="M9.78236 6.89296C10.0138 6.89296 10.2014 6.70533 10.2014 6.47388C10.2014 6.24244 10.0138 6.05481 9.78236 6.05481C9.55091 6.05481 9.36328 6.24244 9.36328 6.47388C9.36328 6.70533 9.55091 6.89296 9.78236 6.89296Z" stroke="#FFCB47" stroke-width="0.303674" stroke-linecap="round" stroke-linejoin="round"/>
<path d="M4.0791 6.63794C4.57106 6.82926 4.37974 7.3121 4.86259 7.50342C5.34543 7.68562 5.53675 7.20278 6.01049 7.3941C6.30202 7.50342 6.34757 7.71296 6.43867 7.91338" stroke="#FFCB47" stroke-width="0.303674" stroke-linecap="round" stroke-linejoin="round"/>
</svg>
