<svg width="342" height="427" viewBox="0 0 342 427" fill="none" xmlns="http://www.w3.org/2000/svg">
<circle cx="171" cy="213" r="171" fill="#B20B0B" fill-opacity="0.3"/>
<rect x="132.967" y="-1.52209" width="185.488" height="394.94" rx="18.2133" transform="rotate(15 132.967 -1.52209)" fill="#B20B0B"/>
<path d="M155.193 198.007L156.668 198.402L151.429 205.404L149.829 204.976L148.794 196.292L150.268 196.687L151.02 203.731L155.193 198.007ZM164.009 200.369L165.374 200.735L163.272 208.578L161.908 208.212L162.269 206.863C161.312 207.716 160.185 207.969 158.889 207.622C157.791 207.327 156.961 206.679 156.4 205.677C155.842 204.665 155.717 203.583 156.025 202.433C156.334 201.283 156.981 200.414 157.968 199.826C158.958 199.229 160.001 199.077 161.099 199.371C162.396 199.718 163.245 200.501 163.648 201.718L164.009 200.369ZM159.414 206.35C160.209 206.563 160.944 206.474 161.621 206.084C162.3 205.683 162.746 205.085 162.958 204.291C163.171 203.496 163.083 202.76 162.692 202.084C162.305 201.398 161.714 200.948 160.919 200.735C160.134 200.525 159.403 200.62 158.724 201.021C158.048 201.411 157.603 202.004 157.39 202.799C157.177 203.593 157.264 204.334 157.652 205.021C158.043 205.697 158.63 206.14 159.414 206.35ZM165.34 209.132L168.408 197.681L169.773 198.047L166.705 209.497L165.34 209.132ZM175.671 210.841C174.652 211.42 173.568 211.555 172.418 211.247C171.268 210.939 170.396 210.279 169.804 209.269C169.222 208.261 169.087 207.177 169.398 206.016C169.709 204.855 170.368 203.984 171.376 203.402C172.394 202.823 173.478 202.688 174.629 202.996C175.779 203.304 176.65 203.964 177.242 204.974C177.835 205.985 177.975 207.07 177.664 208.231C177.353 209.392 176.689 210.262 175.671 210.841ZM172.775 209.913C173.559 210.124 174.29 210.034 174.966 209.643C175.642 209.253 176.087 208.66 176.3 207.865C176.513 207.071 176.424 206.335 176.033 205.659C175.643 204.983 175.056 204.54 174.271 204.329C173.498 204.122 172.773 204.214 172.096 204.604C171.42 204.994 170.976 205.587 170.763 206.382C170.55 207.176 170.638 207.912 171.029 208.588C171.419 209.264 172.001 209.706 172.775 209.913ZM181.335 206.424C182.046 205.572 182.991 205.304 184.173 205.621L183.791 207.048C183.13 206.838 182.507 206.861 181.922 207.119C181.338 207.377 180.93 207.935 180.701 208.792L179.587 212.949L178.222 212.583L180.324 204.741L181.688 205.106L181.335 206.424ZM184.78 210.81C184.728 211.547 184.901 212.176 185.299 212.698C185.708 213.222 186.284 213.584 187.026 213.782C188.061 214.06 188.916 213.88 189.592 213.243L190.576 214.212C189.496 215.19 188.187 215.472 186.65 215.06C185.406 214.727 184.495 214.068 183.918 213.084C183.354 212.093 183.232 211.001 183.552 209.809C183.868 208.627 184.513 207.746 185.487 207.167C186.46 206.587 187.554 206.459 188.767 206.784C189.917 207.093 190.744 207.751 191.247 208.76C191.763 209.762 191.868 210.832 191.563 211.972C191.51 212.171 191.439 212.37 191.352 212.571L184.78 210.81ZM188.422 208.071C187.69 207.875 187.027 207.921 186.434 208.211C185.844 208.489 185.399 208.959 185.099 209.618L190.338 211.022C190.422 210.248 190.28 209.605 189.913 209.092C189.547 208.579 189.049 208.239 188.422 208.071ZM194.489 210.806C194.408 211.109 194.494 211.396 194.746 211.665C195.002 211.924 195.329 212.168 195.727 212.398C196.127 212.618 196.523 212.858 196.912 213.119C197.304 213.37 197.606 213.709 197.817 214.135C198.03 214.551 198.066 215.026 197.923 215.559C197.732 216.27 197.302 216.766 196.633 217.046C195.975 217.329 195.217 217.356 194.359 217.126C193.596 216.921 192.987 216.579 192.533 216.099C192.079 215.618 191.811 215.07 191.729 214.454L193.087 214.095C193.111 214.505 193.267 214.866 193.553 215.178C193.839 215.49 194.223 215.711 194.704 215.84C195.153 215.96 195.547 215.976 195.885 215.887C196.225 215.788 196.444 215.555 196.542 215.189C196.624 214.886 196.536 214.605 196.281 214.346C196.028 214.076 195.701 213.832 195.301 213.612C194.903 213.382 194.509 213.137 194.119 212.876C193.73 212.614 193.428 212.276 193.215 211.86C193.001 211.444 192.964 210.975 193.105 210.452C193.287 209.772 193.698 209.283 194.338 208.984C194.989 208.687 195.712 208.646 196.507 208.858C197.145 209.029 197.67 209.327 198.083 209.752C198.51 210.168 198.78 210.667 198.893 211.246L197.576 211.583C197.473 210.838 197.003 210.353 196.167 210.129C195.78 210.025 195.425 210.031 195.103 210.147C194.783 210.251 194.579 210.471 194.489 210.806Z" fill="white"/>
<path fill-rule="evenodd" clip-rule="evenodd" d="M175.14 191.979L170.393 171.334L168.124 170.041C168.124 170.041 167.171 169.646 166.839 168.326L165.209 156.74C165.209 156.74 165.236 156.233 165.694 156.558L167.698 165.816C167.698 165.816 168.444 166.638 168.695 165.585L166.485 156.396C166.485 156.396 166.458 156.031 166.853 156.184L169.253 165.36C169.253 165.36 169.918 166.193 170.176 165.172L167.555 156.122C167.555 156.122 167.522 155.662 167.923 155.91L170.819 165.095C170.819 165.095 171.577 165.578 171.715 164.774L168.772 155.763C168.772 155.763 168.78 155.267 169.242 155.64L173.775 166.385C173.775 166.385 174.221 167.392 173.489 168.613L172.285 170.782L178.29 189.521L175.14 191.979ZM178.29 189.521L178.402 189.8L176.14 191.499L175.814 191.786L175.569 192.467L175.445 192.932C175.445 192.932 175.378 193.724 175.456 193.122L175.14 191.979" fill="white"/>
<path fill-rule="evenodd" clip-rule="evenodd" d="M175.604 192.103C175.604 192.103 174.846 193.878 175.907 194.925C175.907 194.925 177.373 196.595 179.476 195.32C179.476 195.32 179.841 195.231 180.967 193.477C180.967 193.477 185.958 187.169 186.183 187.027C186.409 186.884 191.419 180.737 191.838 180.569C191.838 180.569 194.211 177.872 195.144 177.53C195.144 177.53 197.158 178.615 198.445 178.228C198.445 178.228 201.047 177.991 202.97 175.191C202.954 175.209 204.133 173.647 204.735 172.189C204.735 172.189 205.953 168.747 205.279 167.601C205.279 167.601 204.774 165.767 202.146 165.578C202.146 165.578 197.983 165.568 195.104 168.612C195.104 168.612 192.597 171.257 192.783 173.126C192.846 174.082 193.076 175.02 193.464 175.896C193.464 175.896 192.168 177.885 191.023 178.73C191.023 178.73 185.697 183.61 185.598 183.631C185.499 183.652 177.302 190.534 177.149 190.524C177.149 190.523 175.652 191.462 175.604 192.103ZM176.178 191.821C176.178 191.821 175.159 193.12 176.032 194.46C176.032 194.46 177.217 196.366 179.395 194.925C179.395 194.925 183.466 189.491 183.944 189.105C183.944 189.105 188.197 183.984 188.753 183.479C188.753 183.479 192.281 179.379 192.844 178.907C192.844 178.907 194.701 177.147 195.195 177.107C195.195 177.107 196.772 178.137 198.29 177.875C198.29 177.875 200.557 177.493 202.154 175.546C202.154 175.546 204.291 172.973 204.527 171.572C204.527 171.572 205.612 168.453 204.656 167.371C204.292 166.85 203.784 166.447 203.194 166.212C202.604 165.976 201.958 165.918 201.336 166.046C199.107 166.46 198.271 166.906 197.49 167.382C196.708 167.858 194.616 169.446 193.749 171.114C193.749 171.114 192.478 174.402 194.15 175.893C194.15 175.893 190.948 179.707 189.486 180.747C189.486 180.747 184.676 185.039 184.287 185.272C183.809 185.558 177.681 190.805 176.962 191.22L176.178 191.821Z" fill="white"/>
<rect x="132.967" y="-1.52209" width="185.488" height="394.94" rx="18.2133" transform="rotate(15 132.967 -1.52209)" stroke="black" stroke-width="5.75155"/>
</svg>
