<svg width="79" height="68" viewBox="0 0 79 68" fill="none" xmlns="http://www.w3.org/2000/svg">
<path d="M15.0759 55H16.9559L12.9559 65H10.9159L6.91586 55H8.79586L11.9359 63.14L15.0759 55ZM26.3168 55H28.0568V65H26.3168V63.28C25.4501 64.6 24.1901 65.26 22.5368 65.26C21.1368 65.26 19.9435 64.7533 18.9568 63.74C17.9701 62.7133 17.4768 61.4667 17.4768 60C17.4768 58.5333 17.9701 57.2933 18.9568 56.28C19.9435 55.2533 21.1368 54.74 22.5368 54.74C24.1901 54.74 25.4501 55.4 26.3168 56.72V55ZM22.7568 63.58C23.7701 63.58 24.6168 63.24 25.2968 62.56C25.9768 61.8667 26.3168 61.0133 26.3168 60C26.3168 58.9867 25.9768 58.14 25.2968 57.46C24.6168 56.7667 23.7701 56.42 22.7568 56.42C21.7568 56.42 20.9168 56.7667 20.2368 57.46C19.5568 58.14 19.2168 58.9867 19.2168 60C19.2168 61.0133 19.5568 61.8667 20.2368 62.56C20.9168 63.24 21.7568 63.58 22.7568 63.58ZM30.693 65V50.4H32.433V65H30.693ZM43.5276 63.74C42.5009 64.7533 41.2542 65.26 39.7876 65.26C38.3209 65.26 37.0742 64.7533 36.0476 63.74C35.0342 62.7267 34.5276 61.48 34.5276 60C34.5276 58.52 35.0342 57.2733 36.0476 56.26C37.0742 55.2467 38.3209 54.74 39.7876 54.74C41.2542 54.74 42.5009 55.2467 43.5276 56.26C44.5542 57.2733 45.0676 58.52 45.0676 60C45.0676 61.48 44.5542 62.7267 43.5276 63.74ZM39.7876 63.56C40.7876 63.56 41.6276 63.22 42.3076 62.54C42.9876 61.86 43.3276 61.0133 43.3276 60C43.3276 58.9867 42.9876 58.14 42.3076 57.46C41.6276 56.78 40.7876 56.44 39.7876 56.44C38.8009 56.44 37.9676 56.78 37.2876 57.46C36.6076 58.14 36.2676 58.9867 36.2676 60C36.2676 61.0133 36.6076 61.86 37.2876 62.54C37.9676 63.22 38.8009 63.56 39.7876 63.56ZM48.8588 56.68C49.4322 55.44 50.4722 54.82 51.9788 54.82V56.64C51.1255 56.6 50.3922 56.8267 49.7788 57.32C49.1655 57.8133 48.8588 58.6067 48.8588 59.7V65H47.1188V55H48.8588V56.68ZM54.3545 60.8C54.5278 61.6933 54.9345 62.3867 55.5745 62.88C56.2278 63.3733 57.0278 63.62 57.9745 63.62C59.2945 63.62 60.2545 63.1333 60.8545 62.16L62.3345 63C61.3611 64.5067 59.8945 65.26 57.9345 65.26C56.3478 65.26 55.0545 64.7667 54.0545 63.78C53.0678 62.78 52.5745 61.52 52.5745 60C52.5745 58.4933 53.0611 57.24 54.0345 56.24C55.0078 55.24 56.2678 54.74 57.8145 54.74C59.2811 54.74 60.4745 55.26 61.3945 56.3C62.3278 57.3267 62.7945 58.5667 62.7945 60.02C62.7945 60.2733 62.7745 60.5333 62.7345 60.8H54.3545ZM57.8145 56.38C56.8811 56.38 56.1078 56.6467 55.4945 57.18C54.8811 57.7 54.5011 58.4 54.3545 59.28H61.0345C60.8878 58.3333 60.5145 57.6133 59.9145 57.12C59.3145 56.6267 58.6145 56.38 57.8145 56.38ZM65.904 57.7C65.904 58.0867 66.0973 58.4 66.484 58.64C66.8707 58.8667 67.3373 59.0533 67.884 59.2C68.4307 59.3333 68.9773 59.4933 69.524 59.68C70.0707 59.8533 70.5373 60.16 70.924 60.6C71.3107 61.0267 71.504 61.58 71.504 62.26C71.504 63.1667 71.1507 63.8933 70.444 64.44C69.7507 64.9867 68.8573 65.26 67.764 65.26C66.7907 65.26 65.9573 65.0467 65.264 64.62C64.5707 64.1933 64.0773 63.6267 63.784 62.92L65.284 62.06C65.444 62.54 65.744 62.92 66.184 63.2C66.624 63.48 67.1507 63.62 67.764 63.62C68.3373 63.62 68.8107 63.5133 69.184 63.3C69.5573 63.0733 69.744 62.7267 69.744 62.26C69.744 61.8733 69.5507 61.5667 69.164 61.34C68.7773 61.1 68.3107 60.9133 67.764 60.78C67.2173 60.6333 66.6707 60.4667 66.124 60.28C65.5773 60.0933 65.1107 59.7867 64.724 59.36C64.3373 58.9333 64.144 58.3867 64.144 57.72C64.144 56.8533 64.4773 56.14 65.144 55.58C65.824 55.02 66.6707 54.74 67.684 54.74C68.4973 54.74 69.2173 54.9267 69.844 55.3C70.484 55.66 70.964 56.1667 71.284 56.82L69.824 57.64C69.464 56.7867 68.7507 56.36 67.684 56.36C67.1907 56.36 66.7707 56.48 66.424 56.72C66.0773 56.9467 65.904 57.2733 65.904 57.7Z" fill="#B20B0B"/>
<path fill-rule="evenodd" clip-rule="evenodd" d="M36.8832 41.7127L24.656 18.6662L21.5436 17.8511C21.5436 17.8511 20.2838 17.6844 19.4686 16.2208L13.8368 2.95619C13.8368 2.95619 13.707 2.34476 14.3555 2.58566L19.6909 12.9603C19.6909 12.9603 20.8396 13.7013 20.8025 12.3674L15.2446 2.14103C15.2446 2.14103 15.0959 1.71487 15.6152 1.77051L21.3954 11.9228C21.3954 11.9228 22.4513 12.7009 22.4328 11.404L16.4303 1.47396C16.4303 1.47396 16.2444 0.93664 16.8008 1.10344L23.1739 11.1075C23.1739 11.1075 24.2298 11.441 24.1373 10.4406L17.7642 0.658808C17.7642 0.658808 17.6155 0.0659656 18.283 0.362386L27.1013 11.7003C27.1013 11.7003 27.9535 12.7563 27.4719 14.4422L26.7308 17.4063L39.8473 37.7852L36.8832 41.7127ZM39.8473 37.7852L40.0696 38.0816L37.9207 40.8235L37.6243 41.268L37.5499 42.1573V42.7501C37.5499 42.7501 37.7228 43.7135 37.6243 42.9724L36.8832 41.7127" fill="#B20B0B"/>
<path fill-rule="evenodd" clip-rule="evenodd" d="M37.4768 41.7127C37.4768 41.7127 37.1408 44.0656 38.7364 44.9733C38.7364 44.9733 41.0127 46.4924 43.1086 44.3063C43.1086 44.3063 43.5137 44.084 44.2943 41.6386C44.2943 41.6386 48.2219 32.5427 48.4442 32.3014C48.6665 32.0602 52.6681 23.1496 53.1127 22.8161C53.1127 22.8161 55.0765 18.8515 56.0769 18.1475C56.0769 18.1475 58.8188 18.796 60.2268 17.9252C60.2268 17.9252 63.2465 16.8137 64.641 12.8702C64.6286 12.8973 65.5332 10.6633 65.7845 8.73627C65.7845 8.73627 66.1366 4.25292 64.9694 3.10441C64.9694 3.10441 63.7837 1.08449 60.5973 1.69641C60.5973 1.69641 55.6416 3.01172 53.1868 7.55059C53.1868 7.55059 51.047 11.4966 51.8642 13.6609C52.2438 14.7784 52.8169 15.8204 53.5573 16.7395C53.5573 16.7395 52.6496 19.5184 51.5566 20.8894C51.5566 20.8894 46.7768 28.3925 46.6657 28.4486C46.5545 28.5047 38.9959 39.305 38.8107 39.3421C38.8107 39.3414 37.3286 40.9347 37.4768 41.7127ZM38.0696 41.1939C38.0696 41.1939 37.2713 43.0651 38.7364 44.3804C38.7364 44.3804 40.7542 46.2701 42.8863 43.8617C42.8863 43.8617 45.9967 36.0993 46.4429 35.488C46.4429 35.488 49.8702 28.0403 50.3704 27.2624C50.3704 27.2624 53.2604 21.2599 53.7791 20.5189C53.7791 20.5189 55.428 17.8326 56.0023 17.6288C56.0023 17.6288 58.2069 18.3513 59.9299 17.5544C59.9299 17.5544 62.505 16.378 63.7838 13.5529C63.7838 13.5529 65.5063 9.81042 65.34 8.06908C65.34 8.06908 65.6365 4.01189 64.1544 3.03006C63.5558 2.52629 62.8228 2.20874 62.0459 2.11656C61.269 2.02438 60.4821 2.16161 59.7823 2.51132C57.2627 3.71547 56.4105 4.51203 55.6324 5.32719C54.8543 6.14235 52.872 8.69897 52.3718 10.9592C52.3718 10.9592 51.9087 15.2757 54.3726 16.5169C54.3726 16.5169 51.7789 22.0748 50.3711 23.7787C50.3711 23.7787 46.0173 30.4172 45.6283 30.8186C45.1511 31.3111 39.5332 39.5074 38.8108 40.2298L38.0696 41.1939Z" fill="#B20B0B"/>
</svg>
