<svg width="29" height="33" viewBox="0 0 29 33" fill="none" xmlns="http://www.w3.org/2000/svg">
<path d="M13.8166 27.2208C19.2733 27.2208 23.6968 22.7973 23.6968 17.3407C23.6968 11.8841 19.2733 7.46057 13.8166 7.46057C8.36 7.46057 3.93652 11.8841 3.93652 17.3407C3.93652 22.7973 8.36 27.2208 13.8166 27.2208Z" fill="#E5EEFA"/>
<path d="M14.6457 26.1219C20.1024 26.1219 24.5259 21.6985 24.5259 16.2418C24.5259 10.7852 20.1024 6.36169 14.6457 6.36169C9.1891 6.36169 4.76562 10.7852 4.76562 16.2418C4.76562 21.6985 9.1891 26.1219 14.6457 26.1219Z" fill="white"/>
<path d="M10.7787 15.7023H10.7187C10.6606 15.3647 10.5215 15.0462 10.3132 14.7742C10.1049 14.5022 9.83381 14.2848 9.52306 14.1406C9.21231 13.9964 8.87121 13.9297 8.52903 13.9463C8.18685 13.9629 7.8538 14.0622 7.55845 14.2358C7.26309 14.4094 7.01426 14.652 6.83329 14.9429C6.65232 15.2338 6.54461 15.5642 6.51941 15.9059C6.49421 16.2475 6.55226 16.5902 6.6886 16.9045C6.82493 17.2188 7.03546 17.4953 7.30215 17.7103C6.97605 18.3935 6.87711 19.1631 7.01981 19.9065C7.1625 20.65 7.53935 21.3283 8.09521 21.8422C8.65107 22.356 9.35678 22.6786 10.1091 22.7626C10.8615 22.8466 11.6209 22.6877 12.2765 22.309C12.932 21.9304 13.4492 21.352 13.7523 20.6583C14.0555 19.9647 14.1287 19.1922 13.9614 18.4539C13.794 17.7157 13.3948 17.0503 12.8221 16.5552C12.2495 16.0601 11.5334 15.7613 10.7787 15.7023Z" fill="#E5EEFA"/>
<path opacity="0.8" d="M11.4394 8.58945C11.3894 9.78825 11.4893 10.9871 11.7091 12.1659C11.7691 12.5055 11.7291 13.8142 12.2486 13.8342C12.3101 13.8336 12.3699 13.8141 12.4199 13.7784C12.47 13.7426 12.5078 13.6924 12.5283 13.6344C12.5882 13.4846 12.5882 13.3147 12.6282 13.1649C12.778 12.7153 13.2975 12.4856 13.6971 12.3057C14.3265 12.026 14.9858 11.9061 15.6352 11.6864C16.2246 11.4866 17.1936 10.8072 17.1037 10.078C17.0238 9.40863 16.0048 9.52851 15.5053 9.84819C15.2681 10.0268 15.0176 10.1871 14.7561 10.3277C14.5862 10.4076 14.3665 10.5974 14.1966 10.3976C14.0168 10.1978 14.2466 9.99804 14.3465 9.81822C14.5463 9.48855 15.0258 8.98905 15.0957 8.58945C15.1956 8.11992 14.9659 7.70034 14.4264 7.83021C14.1067 7.90014 13.7271 8.36967 13.5872 8.67936C13.4574 8.97906 13.3375 9.29874 13.0678 9.48855C12.6981 9.08895 12.9179 8.80923 12.7181 8.30973C12.6182 8.12991 12.4883 7.98006 12.3285 7.86018C11.8789 7.57047 11.4494 8.11992 11.4394 8.58945Z" fill="#F48046"/>
<path d="M12.2083 7.47053C12.4786 7.47053 12.6978 7.0501 12.6978 6.53147C12.6978 6.01284 12.4786 5.59241 12.2083 5.59241C11.9379 5.59241 11.7188 6.01284 11.7188 6.53147C11.7188 7.0501 11.9379 7.47053 12.2083 7.47053Z" fill="#49BC99"/>
<path d="M15.5648 7.11652C15.7929 6.65078 15.7811 6.1768 15.5383 6.05787C15.2955 5.93893 14.9138 6.22007 14.6856 6.68581C14.4574 7.15156 14.4693 7.62553 14.7121 7.74447C14.9548 7.86341 15.3366 7.58226 15.5648 7.11652Z" fill="#49BC99"/>
<path d="M18.2592 9.83657C18.7337 9.62728 19.0299 9.2571 18.9208 9.00974C18.8117 8.76238 18.3386 8.73152 17.8641 8.94081C17.3896 9.1501 17.0933 9.52029 17.2024 9.76765C17.3115 10.015 17.7846 10.0459 18.2592 9.83657Z" fill="#49BC99"/>
<path d="M12.208 16.2019C12.1406 15.7881 11.9631 15.4 11.6942 15.0784C11.4253 14.7567 11.0748 14.5133 10.6795 14.3737C10.6559 14.063 10.5553 13.7631 10.3869 13.501C10.2185 13.2389 9.98747 13.0228 9.71473 12.8722C9.442 12.7216 9.13608 12.6412 8.82454 12.6383C8.51299 12.6353 8.20561 12.7099 7.93009 12.8554C7.65456 13.0008 7.41954 13.2125 7.24621 13.4714C7.07287 13.7303 6.96667 14.0282 6.93716 14.3384C6.90764 14.6486 6.95576 14.9612 7.07715 15.2481C7.19855 15.5351 7.38943 15.7873 7.63258 15.9821C7.4128 16.8312 7.68253 17.7303 8.33188 18.3097C8.17492 18.8854 8.19042 19.4944 8.37644 20.0613C8.56246 20.6282 8.91082 21.128 9.37831 21.4987C9.8458 21.8694 10.4118 22.0947 11.0062 22.1467C11.6006 22.1986 12.1971 22.0749 12.7218 21.7909C13.2465 21.507 13.6763 21.0752 13.9579 20.5491C14.2394 20.0231 14.3603 19.426 14.3056 18.8319C14.2509 18.2377 14.023 17.6728 13.6501 17.207C13.2772 16.7413 12.7758 16.3952 12.208 16.2118V16.2019Z" fill="#F3D49E"/>
<path d="M9.84852 14.7481C9.87476 14.2301 9.67715 13.7991 9.40714 13.7855C9.13714 13.7718 8.89699 14.1806 8.87075 14.6986C8.84451 15.2165 9.04212 15.6475 9.31213 15.6612C9.58213 15.6749 9.82228 15.2661 9.84852 14.7481Z" fill="#49BC99"/>
<path d="M21.9876 18.4895C20.619 19.9181 18.0715 20.1678 16.2234 20.1678C15.9425 20.1846 15.661 20.1473 15.3942 20.0579C15.2626 20.0108 15.145 19.9311 15.0524 19.8263C14.9599 19.7215 14.8953 19.595 14.8648 19.4585C14.8148 19.1988 14.9447 18.9491 14.9946 18.6893C15.0546 18.3896 15.0745 18.0799 15.0546 17.7702C14.9647 15.8022 14.3453 12.2957 16.9926 11.5964C18.0116 11.3267 18.8408 11.017 19.9097 11.1968C20.3593 11.2867 20.8088 11.4266 21.2184 11.6364C21.568 11.8062 21.8877 12.046 22.1475 12.3357C22.3173 12.4855 22.4671 12.6354 22.607 12.8052C22.7169 12.985 22.8068 13.1648 22.8867 13.3646C23.2763 14.3037 23.1664 15.2627 23.1565 16.2518C23.1565 17.021 22.4971 17.9501 21.9876 18.4895Z" fill="#E5EEFA"/>
<path d="M10.9285 10.2578C10.2392 10.6974 9.62983 11.2568 9.13033 11.9161M7.61185 22.9151C6.45364 21.7189 5.61895 20.2476 5.18641 18.6397C4.75386 17.0318 4.73769 15.3402 5.13941 13.7243C5.54113 12.1085 6.34753 10.6214 7.48265 9.40326C8.61778 8.1851 10.0443 7.2759 11.6278 6.76129L7.61185 22.9151ZM17.5819 6.73132C18.9239 7.15318 20.1596 7.85875 21.205 8.80017C22.2504 9.74159 23.081 10.8968 23.6407 12.1875C24.2003 13.4782 24.4758 14.8742 24.4484 16.2808C24.4211 17.6873 24.0915 19.0715 23.4822 20.3395C22.8728 21.6075 21.9978 22.7295 20.9166 23.6296C19.8354 24.5297 18.5733 25.1867 17.2159 25.5561C15.8584 25.9254 14.4374 25.9985 13.0492 25.7704C11.661 25.5422 10.3381 25.0182 9.17029 24.2338L17.5819 6.73132ZM20.3491 12.1659C19.9795 11.6364 19.5299 11.1569 19.0304 10.7473L20.3491 12.1659ZM11.8576 22.4856C12.8469 22.9218 13.9247 23.1202 15.0045 23.065L11.8576 22.4856Z" stroke="black" stroke-width="0.195804" stroke-linecap="round"/>
<path d="M22.1873 14.7932C21.478 12.0059 19.48 11.996 18.0614 11.986C16.7127 12.0259 15.0144 13.5944 15.3441 16.2817C15.414 17.4605 15.5439 19.6283 14.9645 20.7872C14.3851 21.956 15.0344 24.4235 17.492 23.4745C19.9395 22.5154 22.7867 17.4505 22.1873 14.7932Z" fill="#C16453"/>
<path d="M21.6079 20.3877C20.7088 21.9262 19.2103 23.0351 17.492 23.4646C14.6349 24.2039 14.3052 21.8063 14.8847 20.6475C15.4541 19.4786 15.4741 17.5605 15.4041 16.3817C15.4541 13.8443 16.3132 13.1649 17.522 12.4357C18.3512 11.9362 19.56 11.3268 21.6679 13.0451C22.4871 13.7144 22.7168 14.5835 22.9166 15.6624C23.1164 17.0411 22.577 18.11 22.1374 19.2888" stroke="black" stroke-width="0.195804" stroke-linecap="round"/>
<path opacity="0.4" d="M15.7939 22.1359L16.4932 22.9351M19.1806 13.6844L19.5702 14.1439L21.3684 16.2418L19.1806 13.6844ZM19.5702 16.2418L21.0087 17.9202L19.5702 16.2418ZM18.5712 17.3208L20.3094 19.3587L18.5712 17.3208ZM16.6131 17.2408L19.5102 20.6374L16.6131 17.2408ZM16.8729 19.6684L18.721 21.8262L16.8729 19.6684ZM16.1736 20.8572L17.5722 22.4956L16.1736 20.8572Z" stroke="#714140" stroke-width="0.195804" stroke-linecap="round"/>
<path d="M17.7936 15.8018C18.152 15.79 18.433 15.4898 18.4211 15.1313C18.4092 14.7729 18.109 14.492 17.7506 14.5039C17.3921 14.5158 17.1112 14.816 17.1231 15.1744C17.135 15.5328 17.4352 15.8137 17.7936 15.8018Z" stroke="white" stroke-width="0.391608" stroke-linecap="round"/>
<path fill-rule="evenodd" clip-rule="evenodd" d="M12.108 13.6643C11.8582 13.6643 11.7883 13.4645 11.7883 13.2148L11.3987 8.41959C11.3587 7.7103 11.8682 7.45056 12.118 7.45056C12.3577 7.45056 12.8173 7.67034 12.8173 8.4096L12.4277 13.2048C12.4277 13.4645 12.3577 13.6643 12.108 13.6643V13.6643Z" stroke="black" stroke-width="0.195804" stroke-linecap="round"/>
<path d="M12.6968 10.6374L13.7857 8.28976C14.0854 7.66039 14.6648 7.68037 14.8846 7.80025C15.0844 7.92013 15.3841 8.52952 15.0145 8.98906L12.8966 12.1159M11.9675 7.47058C11.9675 7.47058 11.3681 6.31174 12.0874 5.68237C12.7568 5.10295 12.2373 7.40065 12.2373 7.40065L11.9675 7.47058Z" stroke="black" stroke-width="0.195804" stroke-linecap="round"/>
<path d="M13.8656 10.8872L16.0034 9.42861C16.5928 9.039 17.0723 9.34869 17.2022 9.56847C17.3221 9.77826 17.2721 10.4576 16.7027 10.6474L13.2861 12.2758M14.7447 7.75029C14.7447 7.75029 14.7846 6.45159 15.7237 6.25179C16.5928 6.08196 15.0244 7.83021 15.0244 7.83021L14.7447 7.75029Z" stroke="black" stroke-width="0.195804" stroke-linecap="round"/>
<path d="M17.0928 9.42863C17.0928 9.42863 17.7921 8.32973 18.6912 8.63942C19.5403 8.93912 17.2926 9.63842 17.2926 9.63842" stroke="black" stroke-width="0.195804" stroke-linecap="round"/>
<path d="M10.9395 22.086C12.5009 22.086 13.7666 20.8202 13.7666 19.2588C13.7666 17.6974 12.5009 16.4316 10.9395 16.4316C9.37807 16.4316 8.1123 17.6974 8.1123 19.2588C8.1123 20.8202 9.37807 22.086 10.9395 22.086Z" stroke="black" stroke-width="0.195804" stroke-linecap="round"/>
<path d="M7.18282 15.2827C7.08967 15.0886 7.03568 14.878 7.02393 14.6629C7.01218 14.4479 7.04289 14.2327 7.11432 14.0295C7.25858 13.6192 7.55992 13.283 7.95205 13.0949C8.34417 12.9068 8.79497 12.8822 9.20527 13.0264C9.40842 13.0979 9.59552 13.2086 9.75588 13.3523C9.91624 13.4961 10.0467 13.67 10.1399 13.8642M12.7473 21.976C12.3903 22.2837 11.9666 22.5041 11.5097 22.6197C11.0529 22.7353 10.5754 22.7431 10.115 22.6423C9.65465 22.5415 9.22407 22.3349 8.85733 22.039C8.49058 21.743 8.19775 21.3658 8.002 20.9371C7.22278 19.1389 8.02198 17.5205 9.56044 16.7812L12.7473 21.976ZM9.3007 14.2937C9.64199 14.2388 9.99115 14.2586 10.324 14.3518C10.6569 14.445 10.9656 14.6093 11.2287 14.8335C11.4919 15.0577 11.7032 15.3364 11.8481 15.6502C11.993 15.9641 12.068 16.3057 12.0679 16.6514L9.3007 14.2937ZM7.67233 17.9201C7.43471 17.5398 7.31 17.0998 7.31269 16.6514C7.31269 15.8622 7.7023 15.0729 8.35165 14.6833L7.67233 17.9201Z" stroke="black" stroke-width="0.195804" stroke-linecap="round"/>
<path d="M10.22 19.7283C10.0202 19.6483 9.81037 19.0889 9.99019 18.6294C10.17 18.1598 10.8393 17.8701 10.8393 17.8701C10.9392 18.1099 10.9892 18.3696 10.9992 18.6294" fill="#49BC99"/>
<path d="M10.22 19.7283C10.0202 19.6483 9.81037 19.0889 9.99019 18.6294C10.17 18.1598 10.8393 17.8701 10.8393 17.8701C10.9392 18.1099 10.9892 18.3696 10.9992 18.6294" stroke="black" stroke-width="0.195804" stroke-linecap="round"/>
<path d="M11.5076 19.7183C11.1779 20.1878 10.6484 20.3976 10.4386 20.2478C10.2288 20.0979 10.2089 19.5285 10.5385 19.049C10.8582 18.5795 11.6774 18.4196 11.6774 18.4196C11.6774 18.4196 11.8272 19.2388 11.5076 19.7183Z" fill="#49BC99" stroke="black" stroke-width="0.195804" stroke-linecap="round"/>
<path fill-rule="evenodd" clip-rule="evenodd" d="M9.37022 14.7233C9.43016 15.1929 9.22037 15.6025 9.02057 15.6224C8.82077 15.6624 8.4911 15.3227 8.42117 14.8632C8.36123 14.4037 8.76083 13.8642 8.76083 13.8642C8.76083 13.8642 9.30029 14.2738 9.36023 14.7333L9.37022 14.7233Z" stroke="black" stroke-width="0.195804" stroke-linecap="round"/>
<path d="M1.37833 8.2199V14.4736M0.0996094 7.78033V10.148C0.0996094 10.148 0.0996093 11.4267 1.37833 11.4267C2.66704 11.4267 2.66704 10.148 2.66704 10.148V7.78033H0.0996094Z" stroke="black" stroke-width="0.195804"/>
<path d="M1.53831 14.3337H1.22862C0.98586 14.3337 0.789062 14.5305 0.789062 14.7732V23.6544C0.789062 23.8971 0.98586 24.0939 1.22862 24.0939H1.53831C1.78108 24.0939 1.97787 23.8971 1.97787 23.6544V14.7732C1.97787 14.5305 1.78108 14.3337 1.53831 14.3337Z" stroke="black" stroke-width="0.195804"/>
<path fill-rule="evenodd" clip-rule="evenodd" d="M26.6221 8.02995V21.4166C26.6221 22.4655 26.662 23.3147 27.1815 23.3147C27.711 23.3147 27.8608 21.8262 27.8309 21.0569C27.8009 20.2777 27.5811 16.3616 27.5811 16.3616C27.5811 16.3616 28.1605 15.3926 28.1605 13.2347C28.1605 11.0769 27.4612 7.22076 27.1615 7.22076C26.6121 7.22076 26.6221 8.01996 26.6221 8.01996V8.02995Z" stroke="black" stroke-width="0.195804"/>
<path opacity="0.6" d="M20.6988 29.6683C20.8786 30.0779 20.479 30.2578 20.6589 30.6574C20.8387 31.057 21.2383 30.8671 21.4181 31.2667M26.0335 3.16485C25.6339 3.64437 25.1344 3.22479 24.7348 3.70431C24.3552 4.18383 24.8647 4.59342 24.475 5.07294C24.0754 5.55246 23.5759 5.13288 23.1763 5.6124C22.7767 6.1119 23.3062 6.49152 22.9066 6.97104L26.0335 3.16485ZM25.8137 28.1299C25.2742 27.6703 25.7737 27.1009 25.2443 26.6314C24.7048 26.1818 24.2153 26.7612 23.6758 26.2917C23.1464 25.8322 23.6459 25.2727 23.0964 24.7932L25.8137 28.1299ZM6.46306 25.982C6.01351 26.4216 5.54398 25.9321 5.08444 26.3816C4.63489 26.8112 5.11441 27.3007 4.65487 27.7303C4.20532 28.1698 3.73579 27.6803 3.27625 28.1299C2.81671 28.5694 3.30622 29.039 2.84668 29.4885L6.46306 25.982ZM14.6549 4.27374C14.475 3.67434 15.0545 3.50451 14.8846 2.9151C14.7148 2.33568 14.1154 2.5155 13.9356 1.9161C13.7558 1.33667 14.3552 1.15685 14.1753 0.567444L14.6549 4.27374ZM7.97155 2.37564C8.36116 2.97504 7.77175 3.35466 8.15137 3.94407C8.53099 4.54347 9.13039 4.14387 9.50002 4.74327L7.97155 2.37564Z" stroke="#FFCB47" stroke-width="0.293706" stroke-linecap="round" stroke-linejoin="round"/>
<path opacity="0.6" d="M20.888 3.20479C20.918 3.20479 20.9479 3.22477 20.9579 3.26473L20.9879 3.60439C20.9879 3.62437 21.0079 3.64435 21.0179 3.65434L21.3176 3.82417C21.3259 3.83071 21.3326 3.83906 21.3372 3.84858C21.3418 3.85809 21.3442 3.86854 21.3442 3.87911C21.3442 3.88969 21.3418 3.90014 21.3372 3.90965C21.3326 3.91917 21.3259 3.92752 21.3176 3.93406L21.0179 4.08391C20.9979 4.08391 20.9779 4.11388 20.9779 4.13386L20.918 4.47352C20.918 4.50349 20.878 4.52347 20.848 4.52347C20.8281 4.52347 20.8181 4.52347 20.7981 4.50349L20.5683 4.25374C20.5617 4.24728 20.5539 4.24218 20.5453 4.23875C20.5368 4.23532 20.5276 4.23363 20.5184 4.23376L20.1687 4.28371C20.1564 4.28494 20.1439 4.28285 20.1326 4.27767C20.1213 4.27249 20.1116 4.2644 20.1045 4.25422C20.0974 4.24405 20.0931 4.23217 20.0921 4.21979C20.0911 4.20742 20.0934 4.195 20.0988 4.18381L20.2686 3.88411V3.81418L20.1188 3.51448C20.1138 3.50407 20.1115 3.49259 20.1121 3.48107C20.1126 3.46955 20.116 3.45835 20.1219 3.44846C20.1279 3.43857 20.1362 3.4303 20.1461 3.42439C20.156 3.41848 20.1672 3.41511 20.1787 3.41458H20.1887L20.5284 3.48451H20.5383L20.5883 3.46453L20.838 3.22477L20.878 3.20479H20.888ZM20.888 2.93506C20.7881 2.93506 20.7082 2.96503 20.6482 3.03496L20.4784 3.18481L20.2486 3.14485H20.1787C20.1214 3.14571 20.0653 3.16104 20.0156 3.18941C19.9658 3.21778 19.924 3.25827 19.8941 3.30712C19.8642 3.35596 19.8472 3.41158 19.8445 3.46879C19.8419 3.52601 19.8537 3.58296 19.879 3.63436L19.9789 3.83416L19.869 4.04395C19.8414 4.0957 19.8277 4.15372 19.8292 4.21236C19.8306 4.27099 19.8473 4.32825 19.8775 4.37854C19.9076 4.42884 19.9503 4.47046 20.0014 4.49936C20.0524 4.52826 20.1101 4.54345 20.1687 4.54345H20.2087L20.4384 4.51348L20.5983 4.6933C20.6408 4.74136 20.6962 4.77638 20.7578 4.79429C20.8195 4.81221 20.8849 4.81228 20.9466 4.7945C21.0083 4.77673 21.0637 4.74183 21.1064 4.69386C21.149 4.64589 21.1772 4.58681 21.1877 4.52347L21.2277 4.28371L21.4374 4.18381C21.4928 4.1567 21.5397 4.11504 21.5732 4.0633C21.6067 4.01157 21.6254 3.9517 21.6275 3.89011C21.6295 3.82852 21.6148 3.76754 21.5848 3.71369C21.5549 3.65984 21.5108 3.61515 21.4574 3.58441L21.2576 3.47452L21.2177 3.23476C21.1977 3.06493 21.0578 2.93506 20.888 2.93506ZM16.4424 28.9291C16.4724 28.9291 16.5024 28.949 16.5024 28.989L16.5423 29.3287C16.5423 29.3486 16.5623 29.3686 16.5823 29.3786L16.882 29.5385C16.8923 29.5447 16.9009 29.5535 16.9068 29.564C16.9128 29.5745 16.9159 29.5863 16.9159 29.5984C16.9159 29.6105 16.9128 29.6223 16.9068 29.6328C16.9009 29.6433 16.8923 29.6521 16.882 29.6583L16.5723 29.8082C16.5523 29.8082 16.5423 29.8282 16.5324 29.8581L16.4724 30.1978C16.4724 30.2278 16.4424 30.2477 16.4125 30.2477C16.3925 30.2477 16.3725 30.2477 16.3625 30.2278L16.1228 29.978C16.1162 29.9715 16.1084 29.9665 16.0998 29.963C16.0912 29.9596 16.082 29.9579 16.0728 29.958L15.7232 30.008C15.7108 30.0092 15.6983 30.0071 15.6871 30.0019C15.6758 29.9968 15.6661 29.9887 15.659 29.9785C15.6518 29.9683 15.6476 29.9564 15.6466 29.9441C15.6455 29.9317 15.6479 29.9193 15.6532 29.9081L15.8231 29.6084V29.5385L15.6732 29.2388C15.6683 29.2283 15.666 29.2169 15.6665 29.2053C15.6671 29.1938 15.6705 29.1826 15.6764 29.1727C15.6823 29.1628 15.6906 29.1546 15.7005 29.1487C15.7104 29.1427 15.7216 29.1394 15.7332 29.1389H15.7431L16.0828 29.2088H16.1028L16.1427 29.1888L16.3925 28.949L16.4424 28.9291ZM16.4424 28.6593C16.3425 28.6593 16.2626 28.6893 16.2027 28.7592L16.0329 28.9191L15.8031 28.8691H15.7332C15.6759 28.87 15.6198 28.8853 15.57 28.9137C15.5203 28.942 15.4785 28.9825 15.4486 29.0314C15.4187 29.0802 15.4016 29.1359 15.399 29.1931C15.3963 29.2503 15.4082 29.3072 15.4335 29.3586L15.5334 29.5684L15.4235 29.7682C15.3934 29.8203 15.3777 29.8794 15.3779 29.9395C15.3782 29.9995 15.3944 30.0585 15.4248 30.1103C15.4553 30.1621 15.499 30.2049 15.5514 30.2343C15.6038 30.2637 15.6631 30.2787 15.7232 30.2777H15.7631L15.9929 30.2477L16.1527 30.4176C16.1953 30.4656 16.2506 30.5007 16.3123 30.5186C16.3739 30.5365 16.4394 30.5366 16.5011 30.5188C16.5628 30.501 16.6181 30.4661 16.6608 30.4181C16.7035 30.3702 16.7317 30.3111 16.7421 30.2477L16.7821 30.018L16.9919 29.9181C17.0498 29.892 17.0991 29.8502 17.1345 29.7974C17.1698 29.7446 17.1896 29.683 17.1917 29.6196C17.1938 29.5561 17.178 29.4934 17.1462 29.4384C17.1145 29.3835 17.0679 29.3385 17.0119 29.3087L16.8121 29.1988L16.7721 28.959C16.7521 28.7892 16.6123 28.6593 16.4424 28.6593Z" fill="#FFCB47"/>
<path opacity="0.6" d="M21.2482 27.6204C21.4689 27.6204 21.6478 27.4415 21.6478 27.2208C21.6478 27.0001 21.4689 26.8212 21.2482 26.8212C21.0275 26.8212 20.8486 27.0001 20.8486 27.2208C20.8486 27.4415 21.0275 27.6204 21.2482 27.6204Z" stroke="#FFCB47" stroke-width="0.293706" stroke-linecap="round" stroke-linejoin="round"/>
<path opacity="0.6" d="M4.01581 25.083C4.2365 25.083 4.41541 24.904 4.41541 24.6834C4.41541 24.4627 4.2365 24.2838 4.01581 24.2838C3.79512 24.2838 3.61621 24.4627 3.61621 24.6834C3.61621 24.904 3.79512 25.083 4.01581 25.083Z" stroke="#FFCB47" stroke-width="0.293706" stroke-linecap="round" stroke-linejoin="round"/>
<path opacity="0.6" d="M24.176 9.03895C24.3967 9.03895 24.5756 8.86004 24.5756 8.63935C24.5756 8.41865 24.3967 8.23975 24.176 8.23975C23.9553 8.23975 23.7764 8.41865 23.7764 8.63935C23.7764 8.86004 23.9553 9.03895 24.176 9.03895Z" stroke="#FFCB47" stroke-width="0.293706" stroke-linecap="round" stroke-linejoin="round"/>
<path opacity="0.6" d="M10.0988 29.0989C10.3195 29.0989 10.4984 28.92 10.4984 28.6993C10.4984 28.4786 10.3195 28.2997 10.0988 28.2997C9.87813 28.2997 9.69922 28.4786 9.69922 28.6993C9.69922 28.92 9.87813 29.0989 10.0988 29.0989Z" stroke="#FFCB47" stroke-width="0.293706" stroke-linecap="round" stroke-linejoin="round"/>
<path opacity="0.6" d="M7.25285 31.3167C7.6832 31.3167 8.03207 30.9679 8.03207 30.5375C8.03207 30.1072 7.6832 29.7583 7.25285 29.7583C6.8225 29.7583 6.47363 30.1072 6.47363 30.5375C6.47363 30.9679 6.8225 31.3167 7.25285 31.3167Z" stroke="#FFCB47" stroke-width="0.293706" stroke-linecap="round" stroke-linejoin="round"/>
<path opacity="0.6" d="M17.7614 2.18583C18.1145 2.18583 18.4008 1.89957 18.4008 1.54647C18.4008 1.19336 18.1145 0.907104 17.7614 0.907104C17.4083 0.907104 17.1221 1.19336 17.1221 1.54647C17.1221 1.89957 17.4083 2.18583 17.7614 2.18583Z" stroke="#FFCB47" stroke-width="0.293706" stroke-linecap="round" stroke-linejoin="round"/>
<path opacity="0.6" d="M24.5847 23.3047C24.9378 23.3047 25.224 23.0185 25.224 22.6654C25.224 22.3123 24.9378 22.026 24.5847 22.026C24.2316 22.026 23.9453 22.3123 23.9453 22.6654C23.9453 23.0185 24.2316 23.3047 24.5847 23.3047Z" stroke="#FFCB47" stroke-width="0.293706" stroke-linecap="round" stroke-linejoin="round"/>
<path opacity="0.6" d="M10.5492 2.40563C10.7974 2.40563 10.9987 2.20436 10.9987 1.95608C10.9987 1.7078 10.7974 1.50653 10.5492 1.50653C10.3009 1.50653 10.0996 1.7078 10.0996 1.95608C10.0996 2.20436 10.3009 2.40563 10.5492 2.40563Z" stroke="#FFCB47" stroke-width="0.195804" stroke-linecap="round" stroke-linejoin="round"/>
<path opacity="0.6" d="M7.29135 7.17089C7.53963 7.17089 7.7409 6.96962 7.7409 6.72134C7.7409 6.47306 7.53963 6.27179 7.29135 6.27179C7.04307 6.27179 6.8418 6.47306 6.8418 6.72134C6.8418 6.96962 7.04307 7.17089 7.29135 7.17089Z" stroke="#FFCB47" stroke-width="0.293706" stroke-linecap="round" stroke-linejoin="round"/>
<path opacity="0.6" d="M3.70696 4.39358L3.72694 4.40357L3.97669 4.54343H4.02664L4.27639 4.42355C4.28434 4.41295 4.29617 4.40594 4.30929 4.40407C4.3224 4.4022 4.33572 4.40561 4.34632 4.41356C4.35692 4.42151 4.36392 4.43334 4.3658 4.44646C4.36767 4.45957 4.36426 4.47289 4.35631 4.48349L4.29637 4.75322C4.29637 4.7732 4.29637 4.78319 4.31635 4.80317L4.50616 5.01296C4.51941 5.01826 4.53001 5.0286 4.53563 5.04172C4.54125 5.05483 4.54143 5.06964 4.53613 5.08289C4.53083 5.09614 4.52049 5.10674 4.50737 5.11236C4.49426 5.11798 4.47945 5.11816 4.4662 5.11286L4.18648 5.13284C4.1665 5.13284 4.15651 5.14283 4.14652 5.16281L4.00666 5.41256C4.00666 5.42581 4.0014 5.43851 3.99203 5.44788C3.98266 5.45725 3.96996 5.46251 3.95671 5.46251C3.94346 5.46251 3.93076 5.45725 3.92139 5.44788C3.91202 5.43851 3.90676 5.42581 3.90676 5.41256L3.79687 5.15282C3.78688 5.13284 3.77689 5.12285 3.75691 5.12285L3.48718 5.06291C3.47393 5.06688 3.45965 5.06543 3.44747 5.05888C3.43529 5.05232 3.42622 5.04119 3.42224 5.02794C3.41827 5.0147 3.41972 5.00041 3.42628 4.98824C3.43284 4.97606 3.44396 4.96698 3.45721 4.96301L3.667 4.78319L3.68698 4.73324L3.64702 4.45352C3.6451 4.44526 3.64532 4.43665 3.64766 4.42849C3.64999 4.42034 3.65436 4.41292 3.66036 4.40692C3.66635 4.40092 3.67378 4.39655 3.68193 4.39422C3.69009 4.39188 3.6987 4.39166 3.70696 4.39358ZM3.70696 4.12385C3.66009 4.1235 3.61368 4.13316 3.57084 4.15216C3.52799 4.17117 3.48969 4.1991 3.4585 4.23408C3.4273 4.26906 3.40392 4.31029 3.38991 4.35502C3.37591 4.39975 3.37161 4.44695 3.37729 4.49348L3.40726 4.65332L3.27739 4.7732C3.23441 4.81472 3.20352 4.86714 3.18803 4.92486C3.17254 4.98258 3.17302 5.04342 3.18944 5.10088C3.20586 5.15834 3.23759 5.21026 3.28123 5.25108C3.32488 5.29191 3.3788 5.3201 3.43723 5.33264L3.59707 5.36261L3.667 5.52245C3.69347 5.57562 3.73381 5.62065 3.78375 5.65278C3.8337 5.68491 3.8914 5.70296 3.95076 5.705C4.01011 5.70705 4.06892 5.69302 4.12096 5.66441C4.17301 5.63579 4.21635 5.59365 4.24642 5.54243L4.33633 5.39258L4.49617 5.38259C4.55592 5.37467 4.61236 5.35052 4.65934 5.31276C4.70633 5.275 4.74206 5.22509 4.76266 5.16844C4.78326 5.1118 4.78793 5.05059 4.77617 4.99147C4.76442 4.93235 4.73668 4.87759 4.69597 4.83314L4.59607 4.71326L4.62604 4.55342C4.63903 4.49359 4.6351 4.43132 4.61469 4.37359C4.59429 4.31587 4.55821 4.26496 4.5105 4.22659C4.46279 4.18822 4.40534 4.16388 4.34458 4.15633C4.28382 4.14877 4.22216 4.15828 4.1665 4.18379L4.01665 4.26371L3.8668 4.1738C3.81685 4.14383 3.7669 4.13384 3.70696 4.13384V4.12385Z" fill="#FFCB47"/>
<path opacity="0.6" d="M13.3456 32.7653C13.1658 32.1659 13.7452 31.9961 13.5754 31.4067C13.4056 30.8173 12.8062 31.0071 12.6264 30.4077C12.4465 29.8283 13.0359 29.6484 12.8561 29.059" stroke="#FFCB46" stroke-width="0.244755"/>
</svg>
