<svg width="30" height="33" viewBox="0 0 30 33" fill="none" xmlns="http://www.w3.org/2000/svg">
<path d="M9.81918 10.7611C9.91816 11.0877 9.51232 11.3154 9.25495 11.3946C8.99759 11.4738 8.56205 11.2659 8.44327 10.9392C8.34428 10.672 8.08691 10.4443 8.08691 10.3651C8.08691 10.2463 8.35418 10.5631 8.58185 10.5433C8.81941 10.5136 9.01739 10.1473 9.12627 10.1176C9.25495 10.0781 9.00749 10.6621 9.19556 10.771C9.38364 10.8699 9.76968 10.6027 9.81918 10.771V10.7611Z" fill="#32CA9F"/>
<path d="M20.431 32.7261C25.701 32.7261 29.9732 31.9461 29.9732 30.9839C29.9732 30.0218 25.701 29.2418 20.431 29.2418C15.1609 29.2418 10.8887 30.0218 10.8887 30.9839C10.8887 31.9461 15.1609 32.7261 20.431 32.7261Z" fill="#E5EEFA"/>
<path d="M24.3016 14.8689C24.6481 14.7105 24.9945 14.5918 25.3707 14.5225C25.628 14.8689 25.5191 15.3539 25.3806 15.7598C25.3212 15.9677 25.2222 16.1755 25.1034 16.3537C24.6283 17.0466 23.4206 17.0862 23.3216 16.0666C23.2821 15.5222 23.7572 15.1263 24.3115 14.8689H24.3016Z" fill="#E5EEFA"/>
<path d="M13.9175 21.4417L17.184 29.7961C17.2003 29.8406 17.2255 29.8813 17.2582 29.9157C17.2908 29.9501 17.3301 29.9774 17.3738 29.9959C17.4174 30.0145 17.4643 30.0239 17.5117 30.0236C17.5591 30.0233 17.6059 30.0132 17.6493 29.9941L27.8449 26.0049C27.9474 25.9646 28.0409 25.9043 28.1199 25.8276C28.1989 25.7508 28.2619 25.6591 28.3052 25.5578C28.3485 25.4565 28.3712 25.3476 28.3721 25.2374C28.3729 25.1273 28.3518 25.018 28.3101 24.9161L25.1623 16.8982L22.2323 15.2946L11.2646 19.7985L13.9175 21.4417Z" fill="#FFE091"/>
<path d="M19.371 8.66249C16.4608 10.2265 18.104 10.6422 16.9854 11.6321C16.5103 12.0379 16.5301 12.8199 17.0646 13.0971C17.7971 13.4633 19.5096 12.9981 20.8063 12.1468C23.0533 10.6818 22.4396 9.67215 22.0733 9.20692C21.719 8.87233 21.2779 8.64392 20.8002 8.54768C20.3224 8.45143 19.8273 8.49121 19.371 8.66249Z" fill="#EB6F75"/>
<path d="M9.74008 3.20835C9.22535 3.13906 8.66113 3.5449 8.67103 4.05963C8.67103 4.72284 9.49261 5.09899 9.66089 5.7424C9.72028 5.94037 9.70049 6.17794 9.79947 6.38581C9.91826 6.65308 10.2152 6.80156 10.5023 6.90054C11.4557 7.18655 12.473 7.17965 13.4224 6.88074C13.7193 6.75206 13.9965 6.52439 14.333 6.4947C14.4617 6.4947 14.5904 6.4848 14.7092 6.4452C14.8676 6.36601 14.927 6.17794 14.9765 6.00966C15.0655 5.7622 15.115 5.51473 15.1249 5.25737C15.1249 5 15.0062 4.76244 14.8082 4.59416C14.63 4.49517 14.432 4.44568 14.2341 4.45558C13.65 4.42588 13.1749 4.71294 12.6305 4.75254C12.1949 4.79213 11.7594 4.44568 11.4624 4.15862C11.3635 4.05963 11.2447 3.96065 11.1061 3.91115C10.9774 3.86166 10.8487 3.87156 10.72 3.84186C10.4924 3.78247 10.5221 3.5944 10.3835 3.47561C10.1967 3.33078 9.97453 3.23851 9.74008 3.20835Z" fill="#DDAD7F"/>
<path d="M8.968 11.8597C9.53222 11.741 9.83908 12.2161 9.83908 12.8694C9.83908 13.5227 8.9284 17.2248 8.36418 17.1852C7.04766 17.0664 7.92864 13.1169 8.2256 12.3349C8.34438 12.0379 8.64134 11.84 8.968 11.8597Z" fill="#EF8F65"/>
<path d="M3.76296 6.27487C3.97023 6.00669 3.96644 5.65649 3.75449 5.49267C3.54254 5.32886 3.2027 5.41347 2.99542 5.68165C2.78815 5.94983 2.79194 6.30003 3.00389 6.46385C3.21584 6.62766 3.55569 6.54305 3.76296 6.27487Z" fill="#32CA9F"/>
<path d="M2.86648 5.39175C3.07375 5.12357 3.06996 4.77337 2.85801 4.60956C2.64606 4.44574 2.30621 4.53035 2.09894 4.79853C1.89166 5.06671 1.89545 5.41692 2.1074 5.58073C2.31935 5.74454 2.6592 5.65994 2.86648 5.39175Z" fill="#32CA9F"/>
<path d="M1.02761 6.01926C1.23488 5.75107 1.23109 5.40087 1.01914 5.23706C0.807193 5.07325 0.467344 5.15785 0.260069 5.42603C0.0527949 5.69422 0.0565853 6.04442 0.268535 6.20823C0.480486 6.37205 0.820334 6.28744 1.02761 6.01926Z" fill="#32CA9F"/>
<path d="M2.00515 7.17349C2.21242 6.90531 2.20863 6.55511 1.99668 6.3913C1.78473 6.22748 1.44488 6.31209 1.23761 6.58027C1.03033 6.84845 1.03412 7.19865 1.24607 7.36247C1.45802 7.52628 1.79787 7.44167 2.00515 7.17349Z" fill="#32CA9F"/>
<path d="M2.90847 8.27609C3.11574 8.00791 3.11195 7.65771 2.9 7.49389C2.68805 7.33008 2.3482 7.41469 2.14093 7.68287C1.93365 7.95105 1.93744 8.30125 2.14939 8.46507C2.36134 8.62888 2.70119 8.54427 2.90847 8.27609Z" fill="#32CA9F"/>
<path opacity="0.6" d="M14.4321 8.6625C14.4717 8.6625 14.5014 8.6922 14.5014 8.73179L14.541 9.09804C14.541 9.11784 14.5608 9.13763 14.5806 9.14753L14.9072 9.32571C14.9201 9.33085 14.9311 9.33973 14.9389 9.3512C14.9467 9.36266 14.9508 9.3762 14.9508 9.39005C14.9508 9.4039 14.9467 9.41743 14.9389 9.4289C14.9311 9.44037 14.9201 9.44925 14.9072 9.45439L14.5707 9.60287C14.5509 9.61277 14.5311 9.63257 14.5311 9.65236L14.4717 10.0186C14.4618 10.0582 14.4321 10.078 14.3925 10.078C14.3727 10.078 14.3628 10.078 14.343 10.0582L14.0956 9.79094C14.0899 9.78273 14.0826 9.77582 14.0741 9.7707C14.0655 9.76557 14.056 9.76235 14.0461 9.76125H14.0362L13.6699 9.81074H13.66C13.6478 9.81196 13.6354 9.80989 13.6243 9.80476C13.6131 9.79962 13.6035 9.7916 13.5964 9.78153C13.5894 9.77145 13.5851 9.75967 13.5841 9.74741C13.5831 9.73515 13.5854 9.72284 13.5907 9.71175L13.7788 9.3851V9.32571L13.6105 8.98915C13.6052 8.97807 13.6029 8.96576 13.6039 8.9535C13.6049 8.94124 13.6092 8.92946 13.6162 8.91938C13.6233 8.90931 13.6329 8.90129 13.6441 8.89615C13.6552 8.89102 13.6676 8.88895 13.6798 8.89017H13.6897L14.056 8.95946H14.0659C14.0857 8.95946 14.1055 8.95946 14.1154 8.93966L14.3826 8.6823L14.4321 8.6625ZM14.4321 8.36554C14.3331 8.36554 14.244 8.40513 14.1748 8.47442L13.9966 8.6526L13.7491 8.60311H13.6798C13.6195 8.60444 13.5605 8.62065 13.5079 8.65029C13.4554 8.67994 13.411 8.72209 13.3787 8.77302C13.3464 8.82395 13.3271 8.88207 13.3227 8.94223C13.3182 9.00238 13.3287 9.0627 13.3532 9.11784L13.462 9.3455L13.3433 9.56327C13.3127 9.61806 13.2967 9.67977 13.2969 9.7425C13.297 9.80523 13.3133 9.86687 13.3441 9.92152C13.3749 9.97616 13.4192 10.022 13.4728 10.0546C13.5264 10.0872 13.5874 10.1055 13.6501 10.1077H13.7095L13.957 10.0681L14.1253 10.2562C14.172 10.3046 14.2312 10.3392 14.2963 10.3561C14.3615 10.3731 14.43 10.3718 14.4944 10.3524C14.5589 10.3329 14.6167 10.2961 14.6616 10.246C14.7065 10.1958 14.7367 10.1343 14.7489 10.0681L14.7885 9.82064L15.026 9.72165C15.0874 9.69293 15.1395 9.64776 15.1767 9.59116C15.2139 9.53457 15.2347 9.46878 15.2367 9.40108C15.2388 9.33339 15.222 9.26646 15.1883 9.20772C15.1546 9.14898 15.1053 9.10073 15.0458 9.06834L14.8182 8.94956L14.7885 8.70209C14.7789 8.61366 14.7374 8.53173 14.6718 8.47162C14.6063 8.41151 14.5211 8.37732 14.4321 8.37544V8.36554Z" fill="#FFCB47"/>
<path d="M25.2113 16.7002L22.3209 15.3144C22.2813 15.2946 22.2318 15.2946 22.2021 15.3144L10.8583 19.8282C10.8321 19.8384 10.8094 19.8557 10.7928 19.8783C10.7761 19.9008 10.7661 19.9276 10.7641 19.9556C10.762 19.9835 10.7679 20.0115 10.7811 20.0363C10.7942 20.061 10.8141 20.0815 10.8385 20.0955L13.5309 21.6198" stroke="black" stroke-width="0.137157"/>
<path d="M25.1435 16.8486L25.6384 14.5818C25.6417 14.5566 25.6384 14.5309 25.6288 14.5073C25.6193 14.4837 25.6038 14.463 25.5839 14.4471C25.564 14.4312 25.5404 14.4207 25.5153 14.4165C25.4902 14.4124 25.4644 14.4148 25.4405 14.4235L22.748 15.5816" stroke="black" stroke-width="0.137157"/>
<path d="M8.08652 10.4046C7.88855 10.5828 8.13601 11.0282 8.82892 11.3054L8.9675 11.3252C9.7198 11.2262 10.0761 10.8501 9.93757 10.6323C9.79899 10.4046 9.21497 10.8204 9.21497 10.8204C9.21497 10.8204 9.34365 10.0879 9.08628 10.0582M7.97764 12.5625C7.98999 12.4715 8.02014 12.3839 8.06637 12.3045C8.1126 12.2252 8.174 12.1557 8.24708 12.1001C8.32015 12.0445 8.40346 12.0038 8.49226 11.9804C8.58105 11.957 8.67359 11.9513 8.76458 11.9637C8.85557 11.976 8.94324 12.0062 9.02258 12.0524C9.10192 12.0986 9.17138 12.16 9.22699 12.2331C9.2826 12.3062 9.32328 12.3895 9.34669 12.4783C9.3701 12.5671 9.37579 12.6596 9.36345 12.7506L8.40328 16.9872C8.39278 17.0673 8.3509 17.1399 8.28685 17.1891C8.22281 17.2383 8.14185 17.26 8.06177 17.2495C7.9817 17.239 7.90908 17.1971 7.85989 17.1331C7.8107 17.0691 7.78896 16.9881 7.79946 16.908L7.97764 12.5625V12.5625ZM8.88831 11.4737L8.81902 11.9884L8.88831 11.4737Z" stroke="black" stroke-width="0.137157" stroke-linecap="round"/>
<path d="M8.26536 15.6114L8.6415 15.75M9.04735 10.0781C8.78998 10.0484 8.71079 10.7512 8.71079 10.7512C8.71079 10.7512 8.27525 10.2364 8.07728 10.4146L9.04735 10.0781ZM8.06738 13.1367L8.90877 13.2258L8.06738 13.1367ZM8.691 14.1266L9.01765 14.1959L8.691 14.1266Z" stroke="black" stroke-width="0.137157" stroke-linecap="round"/>
<path d="M19.3941 10.8153C19.7097 10.6404 19.871 10.328 19.7543 10.1176C19.6377 9.90727 19.2874 9.87852 18.9718 10.0534C18.6562 10.2284 18.4949 10.5407 18.6115 10.7511C18.7282 10.9615 19.0785 10.9902 19.3941 10.8153Z" stroke="white" stroke-width="0.137157"/>
<path fill-rule="evenodd" clip-rule="evenodd" d="M18.6484 8.85059C15.9758 10.7709 17.6388 10.9788 16.6588 12.0973C16.2431 12.5626 16.3519 13.3446 16.9162 13.5425C17.6982 13.8197 19.3314 13.1367 20.5094 12.1369C22.5584 10.4047 21.8259 9.46431 21.4003 9.06836C20.9845 8.65262 19.6383 8.25668 18.6484 8.85059Z" stroke="black" stroke-width="0.137157"/>
<path d="M16.4014 13.0971C16.4311 13.8296 16.6389 14.2354 17.025 14.3245C17.5991 14.4631 18.2524 14.4928 19.4402 13.8593C20.6281 13.2159 21.7565 12.3745 22.0535 11.543C22.2139 10.966 22.1466 10.3494 21.8654 9.82062" stroke="black" stroke-width="0.137157"/>
<path d="M10.5712 6.82138C10.5613 7.01935 11.6996 7.76175 12.2638 6.82138M12.2341 5.44547C12.1648 5.33658 12.0758 5.2277 11.9768 5.13861C11.9669 4.44571 11.4125 3.90128 10.7295 3.90128C10.6191 3.73129 10.4701 3.58979 10.2947 3.48831C10.1192 3.38682 9.92227 3.32821 9.71987 3.31726C9.47293 3.32032 9.23451 3.40801 9.04443 3.56567C8.85435 3.72333 8.7241 3.94144 8.67545 4.18356C8.62679 4.42568 8.66267 4.67716 8.77709 4.89602C8.89151 5.11487 9.07754 5.28786 9.30413 5.38608C9.30413 5.38608 9.26454 7.32621 11.2839 6.7026L12.2341 5.44547Z" stroke="black" stroke-width="0.137157" stroke-linecap="round" stroke-linejoin="round"/>
<path d="M10.9277 6.33633C10.943 6.2985 10.9671 6.26487 10.998 6.23819C11.0288 6.21151 11.0656 6.19255 11.1052 6.18288C11.1449 6.17321 11.1863 6.17311 11.2259 6.18258C11.2656 6.19205 11.3025 6.21082 11.3335 6.23734M14.5704 4.59417C14.5704 4.59417 12.9965 4.11903 12.0561 5.72261C11.4919 6.91045 13.0856 7.30639 13.4419 6.91045C13.6993 6.63329 14.0655 6.48481 14.4318 6.5145C14.6496 6.5244 14.9069 6.5442 15.2732 6.13835C15.6394 5.72261 15.3128 4.73275 14.5704 4.59417V4.59417ZM14.5308 5.099C14.5251 5.06245 14.511 5.02774 14.4895 4.99762C14.4681 4.96751 14.4399 4.94281 14.4072 4.92551C14.3745 4.90821 14.3382 4.89877 14.3013 4.89796C14.2643 4.89715 14.2276 4.90497 14.1942 4.92082L14.5308 5.099ZM10.017 5.25737C10.0502 5.29344 10.0758 5.3358 10.0923 5.38193C10.1088 5.42807 10.1158 5.47705 10.1131 5.52597C10.1103 5.57489 10.0977 5.62275 10.0761 5.66673C10.0545 5.71071 10.0243 5.74991 9.9873 5.782L10.017 5.25737ZM12.9668 5.26727C13 5.30334 13.0255 5.3457 13.042 5.39183C13.0585 5.43797 13.0656 5.48695 13.0629 5.53586C13.0601 5.58478 13.0475 5.63265 13.0259 5.67663C13.0043 5.72061 12.9741 5.75981 12.9371 5.7919L12.9668 5.26727ZM11.5018 4.82183C11.4637 4.83969 11.4219 4.84796 11.3799 4.84591C11.3379 4.84385 11.2971 4.83155 11.2609 4.81006C11.2248 4.78858 11.1945 4.75857 11.1726 4.72266C11.1508 4.68675 11.138 4.64603 11.1355 4.60406L11.5018 4.82183ZM14.3724 6.21754C14.3487 6.18204 14.3343 6.1412 14.3303 6.09872C14.3264 6.05624 14.333 6.01344 14.3497 5.97417C14.3664 5.9349 14.3926 5.9004 14.4259 5.87377C14.4593 5.84713 14.4987 5.82921 14.5407 5.8216L14.3724 6.21754Z" stroke="black" stroke-width="0.137157" stroke-linecap="round" stroke-linejoin="round"/>
<path fill-rule="evenodd" clip-rule="evenodd" d="M2.27625 5.89088C2.6425 5.7325 2.86027 5.51473 2.92956 5.22767C2.99885 4.95051 2.90976 4.65355 2.66229 4.33679C2.51824 4.39611 2.39004 4.48827 2.28792 4.60592C2.1858 4.72357 2.11259 4.86346 2.07413 5.01442C2.03567 5.16539 2.03302 5.32325 2.06639 5.47543C2.09976 5.6276 2.16824 5.76986 2.26635 5.89088H2.27625ZM1.74172 5.94037C1.57344 5.57412 1.34577 5.36625 1.06861 5.29696C0.771653 5.22767 0.484592 5.32666 0.177734 5.59392C0.241664 5.7357 0.337791 5.86061 0.458472 5.95872C0.579153 6.05683 0.72106 6.12543 0.872908 6.15907C1.02476 6.19271 1.18236 6.19045 1.33318 6.15249C1.48401 6.11452 1.62389 6.04189 1.74172 5.94037V5.94037ZM2.52371 6.51449C2.15746 6.36601 1.84071 6.37591 1.59324 6.53429C1.34577 6.68277 1.19729 6.95993 1.1676 7.35588C1.31188 7.41166 1.46714 7.4332 1.62115 7.4188C1.77517 7.4044 1.92375 7.35446 2.05519 7.27291C2.18664 7.19136 2.29737 7.08042 2.37866 6.94881C2.45996 6.81721 2.50961 6.66854 2.52371 6.51449V6.51449ZM3.3057 7.57365C2.93945 7.43507 2.6227 7.43507 2.37523 7.59344C2.12777 7.75182 1.97929 8.02898 1.94959 8.42493C2.09535 8.481 2.25222 8.50214 2.40763 8.48666C2.56303 8.47118 2.71265 8.41951 2.84448 8.33579C2.97632 8.25207 3.08671 8.13863 3.1668 8.00456C3.2469 7.87049 3.29447 7.71952 3.3057 7.56375V7.57365ZM3.96891 5.38605C3.57297 5.40584 3.29581 5.53453 3.12753 5.78199C2.96915 6.01956 2.94935 6.33632 3.07804 6.70257C3.23159 6.69382 3.38107 6.64977 3.51482 6.57383C3.64857 6.49788 3.763 6.39211 3.8492 6.26472C3.9354 6.13734 3.99105 5.99178 4.01181 5.83938C4.03257 5.68698 4.01789 5.53185 3.96891 5.38605V5.38605Z" stroke="black" stroke-width="0.137157"/>
<path d="M1.77148 5.98985C2.28621 5.97995 2.62277 6.14823 2.78115 6.50458C3.00881 7.03911 3.45425 8.10816 4.45402 7.86069" stroke="black" stroke-width="0.137157"/>
<path opacity="0.6" d="M22.6284 1.22864C22.7571 1.42661 22.8759 1.63448 22.7868 1.94134C22.6086 2.56495 21.9157 2.37688 21.7474 3.00049C21.6959 3.16349 21.7065 3.33976 21.7771 3.49543C21.9157 3.79239 22.1929 4.02995 22.0741 4.45559C21.9751 4.76245 21.7672 4.87134 21.5494 4.98022M11.5815 11.1075C11.8191 11.1669 12.0467 11.2164 12.215 11.5034C12.5417 12.0577 11.9181 12.4141 12.2447 12.9882C12.3319 13.14 12.4734 13.2532 12.6407 13.305C12.9376 13.404 13.294 13.3743 13.5216 13.7504C13.68 14.0375 13.6107 14.2651 13.5315 14.4928L11.5815 11.1075ZM3.98926 1.45631C4.22683 1.45631 4.46439 1.45631 4.68216 1.68398C5.1276 2.15911 4.60297 2.65404 5.04841 3.12918C5.16336 3.25789 5.3222 3.33907 5.49385 3.35685C5.82051 3.38654 6.15706 3.26776 6.46392 3.59441C6.68169 3.83198 6.66189 4.06955 6.64209 4.31701L3.98926 1.45631Z" stroke="#FFCB47" stroke-width="0.205735" stroke-linecap="round" stroke-linejoin="round"/>
<path opacity="0.6" d="M1.47558 11.3747C1.83639 11.3747 2.12889 11.0822 2.12889 10.7214C2.12889 10.3606 1.83639 10.0681 1.47558 10.0681C1.11476 10.0681 0.822266 10.3606 0.822266 10.7214C0.822266 11.0822 1.11476 11.3747 1.47558 11.3747Z" stroke="#FFCB47" stroke-width="0.205735"/>
<path opacity="0.6" d="M26.3008 7.74192C26.6616 7.74192 26.9541 7.44943 26.9541 7.08861C26.9541 6.7278 26.6616 6.4353 26.3008 6.4353C25.94 6.4353 25.6475 6.7278 25.6475 7.08861C25.6475 7.44943 25.94 7.74192 26.3008 7.74192Z" stroke="#FFCB47" stroke-width="0.205735"/>
<path opacity="0.6" d="M15.413 2.51546C15.6918 2.51546 15.9179 2.28944 15.9179 2.01063C15.9179 1.73182 15.6918 1.5058 15.413 1.5058C15.1342 1.5058 14.9082 1.73182 14.9082 2.01063C14.9082 2.28944 15.1342 2.51546 15.413 2.51546Z" stroke="#FFCB47" stroke-width="0.205735"/>
<path opacity="0.6" d="M11.9278 17.6207C12.13 17.6207 12.294 17.4568 12.294 17.2545C12.294 17.0522 12.13 16.8882 11.9278 16.8882C11.7255 16.8882 11.5615 17.0522 11.5615 17.2545C11.5615 17.4568 11.7255 17.6207 11.9278 17.6207Z" stroke="#FFCB47" stroke-width="0.205735"/>
<path opacity="0.6" d="M4.08793 15.0075C4.2902 15.0075 4.45418 14.8435 4.45418 14.6413C4.45418 14.439 4.2902 14.275 4.08793 14.275C3.88566 14.275 3.72168 14.439 3.72168 14.6413C3.72168 14.8435 3.88566 15.0075 4.08793 15.0075Z" stroke="#FFCB47" stroke-width="0.205735"/>
<path opacity="0.6" d="M25.7168 1.21871C25.9191 1.21871 26.0831 1.05473 26.0831 0.852456C26.0831 0.650182 25.9191 0.486206 25.7168 0.486206C25.5146 0.486206 25.3506 0.650182 25.3506 0.852456C25.3506 1.05473 25.5146 1.21871 25.7168 1.21871Z" stroke="#FFCB47" stroke-width="0.205735"/>
<path opacity="0.6" d="M18.3621 5.71271C18.3346 5.88552 18.3735 6.06233 18.471 6.20764C18.6492 6.4749 18.956 6.66298 18.8967 7.09852C18.8472 7.42517 18.6492 7.56375 18.4512 7.69244M25.2615 9.90973C25.3902 10.1077 25.5188 10.3057 25.4397 10.6224C25.2714 11.2559 24.5785 11.0679 24.4102 11.6915C24.3618 11.8557 24.3759 12.032 24.4498 12.1864C24.5983 12.4834 24.8754 12.711 24.7566 13.1367C24.6775 13.4534 24.4597 13.5623 24.2419 13.6811L25.2615 9.90973Z" stroke="#FFCB47" stroke-width="0.205735" stroke-linecap="round" stroke-linejoin="round"/>
<path d="M26.7364 27.1036L17.6197 30.7067C17.4832 30.7585 17.3317 30.7542 17.1983 30.6949C17.0648 30.6356 16.9602 30.526 16.907 30.39L13.4326 21.5802L25.1724 16.8981L27.944 23.8965" stroke="#20376A" stroke-width="0.137157" stroke-linecap="round" stroke-linejoin="round"/>
<path d="M9.49263 4.42587C9.59103 4.42587 9.6708 4.3461 9.6708 4.24769C9.6708 4.14929 9.59103 4.06952 9.49263 4.06952C9.39423 4.06952 9.31445 4.14929 9.31445 4.24769C9.31445 4.3461 9.39423 4.42587 9.49263 4.42587Z" fill="black"/>
<path d="M12.9675 6.80158C13.0768 6.80158 13.1655 6.71295 13.1655 6.60361C13.1655 6.49428 13.0768 6.40564 12.9675 6.40564C12.8582 6.40564 12.7695 6.49428 12.7695 6.60361C12.7695 6.71295 12.8582 6.80158 12.9675 6.80158Z" fill="black"/>
</svg>
